<?xml version="1.0" encoding="UTF-8"?>
<svg version="1.1" xmlns="http://www.w3.org/2000/svg" width="180" height="180">
<path d="M0 0 C1.33984375 1.3515625 1.33984375 1.3515625 3.02734375 3.9140625 C3.35734375 4.2440625 3.68734375 4.5740625 4.02734375 4.9140625 C4.29130805 7.75314524 4.49606534 10.56887621 4.65234375 13.4140625 C4.70390625 14.21199219 4.75546875 15.00992187 4.80859375 15.83203125 C4.92550313 17.85731437 4.98124987 19.88593162 5.02734375 21.9140625 C3.00916167 23.93224458 -1.11840133 23.09923153 -3.88891602 23.11938477 C-5.1327153 23.13423416 -5.1327153 23.13423416 -6.40164185 23.14938354 C-9.15575254 23.1810937 -11.90988051 23.20579338 -14.6640625 23.23046875 C-16.56835898 23.25103007 -18.4726508 23.27202632 -20.37693787 23.29344177 C-25.39928431 23.34874735 -30.42167252 23.39811906 -35.4440918 23.44628906 C-40.5649794 23.49644229 -45.68580605 23.55216053 -50.80664062 23.60742188 C-60.86192715 23.71510717 -70.9172665 23.81652895 -80.97265625 23.9140625 C-79.85258682 23.91992874 -78.7325174 23.92579498 -77.57850647 23.93183899 C-67.00026241 23.98916099 -56.42222205 24.06197209 -45.84418583 24.14977741 C-40.40647438 24.19442114 -34.96883681 24.23369054 -29.53100586 24.26049805 C-24.27888778 24.28659075 -19.02705496 24.32703548 -13.77511406 24.37724876 C-11.7757975 24.39387714 -9.77643165 24.40541642 -7.77705574 24.41167641 C-4.96703624 24.42136139 -2.15773992 24.44947295 0.65209961 24.48168945 C1.47065933 24.48025436 2.28921906 24.47881927 3.13258362 24.4773407 C9.49103838 24.57980483 16.08189534 25.52732714 21.1484375 29.6328125 C21.80005859 30.51453125 21.80005859 30.51453125 22.46484375 31.4140625 C22.91730469 32.001875 23.36976563 32.5896875 23.8359375 33.1953125 C26.39398302 36.88560767 27.27748713 38.69025351 27.2578125 43.16796875 C27.25587891 44.18697266 27.25394531 45.20597656 27.25195312 46.25585938 C27.23970703 47.31869141 27.22746094 48.38152344 27.21484375 49.4765625 C27.21387695 51.07661133 27.21387695 51.07661133 27.21289062 52.70898438 C27.16772351 60.63330297 27.16772351 60.63330297 26.02734375 62.9140625 C22.39734375 62.9140625 18.76734375 62.9140625 15.02734375 62.9140625 C15.02734375 62.2540625 15.02734375 61.5940625 15.02734375 60.9140625 C14.03734375 60.9140625 13.04734375 60.9140625 12.02734375 60.9140625 C11.97126953 59.12548828 11.97126953 59.12548828 11.9140625 57.30078125 C11.84840343 55.7343435 11.78195607 54.16793866 11.71484375 52.6015625 C11.69228516 51.81587891 11.66972656 51.03019531 11.64648438 50.22070312 C11.61103516 49.46337891 11.57558594 48.70605469 11.5390625 47.92578125 C11.51287842 47.22928467 11.48669434 46.53278809 11.4597168 45.81518555 C10.88731463 43.29836133 10.05498968 42.50014322 8.02734375 40.9140625 C5.61508113 40.46512796 5.61508113 40.46512796 2.86535645 40.5398407 C1.79697037 40.53282639 0.72858429 40.52581207 -0.37217712 40.51858521 C-2.13024437 40.53005081 -2.13024437 40.53005081 -3.92382812 40.54174805 C-5.77531212 40.53627205 -5.77531212 40.53627205 -7.66419983 40.53068542 C-11.05067979 40.52396119 -14.43661177 40.53070395 -17.8230381 40.54401755 C-21.36505812 40.5553268 -24.9070638 40.55122495 -28.44909668 40.54927063 C-34.39759038 40.54838748 -40.34597015 40.55947224 -46.29443359 40.57788086 C-53.17398239 40.59904885 -60.05336428 40.6025585 -66.93293905 40.5963189 C-73.54789022 40.59062622 -80.16278254 40.59626976 -86.77772522 40.60749245 C-89.59425442 40.61213972 -92.41074766 40.61301173 -95.22727966 40.6109066 C-99.15874458 40.60867502 -103.09005041 40.6231255 -107.02148438 40.6394043 C-108.19352921 40.63692688 -109.36557404 40.63444946 -110.57313538 40.63189697 C-111.64152145 40.63898178 -112.70990753 40.64606659 -113.81066895 40.65336609 C-115.2054887 40.65644539 -115.2054887 40.65644539 -116.62848663 40.65958691 C-119.24308395 40.76092423 -119.24308395 40.76092423 -121.97265625 42.9140625 C-122.42558381 44.76874679 -122.42558381 44.76874679 -122.35360718 46.93077087 C-122.36629639 48.19051476 -122.36629639 48.19051476 -122.37924194 49.47570801 C-122.3701329 50.86046326 -122.3701329 50.86046326 -122.36083984 52.27319336 C-122.36872528 53.72943871 -122.36872528 53.72943871 -122.37677002 55.21510315 C-122.39001491 58.4365327 -122.38121528 61.65747134 -122.37109375 64.87890625 C-122.37311336 67.11088659 -122.37602384 69.34286629 -122.37979126 71.57484436 C-122.38422084 76.25821195 -122.37776371 80.94140815 -122.36376953 85.62475586 C-122.34668731 91.6353595 -122.35650894 97.64556103 -122.37448692 103.65614986 C-122.38531602 108.26716656 -122.38188224 112.87808759 -122.37410355 117.48910713 C-122.37209861 119.70554209 -122.37457105 121.92198567 -122.38154221 124.13841057 C-122.38914109 127.23435413 -122.37757363 130.32964248 -122.36083984 133.42553711 C-122.36691254 134.34668304 -122.37298523 135.26782898 -122.37924194 136.21688843 C-122.37078247 137.05953751 -122.362323 137.90218658 -122.35360718 138.77037048 C-122.35191056 139.86847754 -122.35191056 139.86847754 -122.35017967 140.98876858 C-121.84628135 143.5585492 -121.10832914 144.41089007 -118.97265625 145.9140625 C-116.5771958 146.36289009 -116.5771958 146.36289009 -113.84863281 146.2882843 C-112.25867493 146.29880577 -112.25867493 146.29880577 -110.63659668 146.30953979 C-109.47390259 146.30189606 -108.3112085 146.29425232 -107.11328125 146.28637695 C-105.27642761 146.29185295 -105.27642761 146.29185295 -103.40246582 146.29743958 C-100.04284289 146.30416365 -96.68377235 146.2974213 -93.32420349 146.28410745 C-89.81021069 146.27279788 -86.29623233 146.27690007 -82.78222656 146.27885437 C-76.88081093 146.27973751 -70.97951013 146.26865297 -65.078125 146.25024414 C-58.2531074 146.22907617 -51.42825804 146.2255665 -44.60321426 146.2318061 C-38.04058865 146.23749886 -31.47802234 146.23185515 -24.91540527 146.22063255 C-22.12120467 146.21598539 -19.32704033 146.21511322 -16.53283691 146.2172184 C-12.63250451 146.21945005 -8.73233245 146.20499922 -4.83203125 146.1887207 C-3.08799011 146.19243683 -3.08799011 146.19243683 -1.30871582 146.19622803 C-0.2487439 146.18914322 0.81122803 146.18205841 1.90332031 146.17475891 C2.82582581 146.17270604 3.7483313 146.17065317 4.6987915 146.16853809 C7.29987763 146.06533559 7.29987763 146.06533559 10.02734375 143.9140625 C10.95743265 141.1237958 11.21433144 139.14876708 11.34375 136.24609375 C11.38564453 135.35341797 11.42753906 134.46074219 11.47070312 133.54101562 C11.51001953 132.61224609 11.54933594 131.68347656 11.58984375 130.7265625 C11.65461914 129.31600586 11.65461914 129.31600586 11.72070312 127.87695312 C11.82672918 125.55616062 11.92753569 123.23513073 12.02734375 120.9140625 C16.97734375 120.9140625 21.92734375 120.9140625 27.02734375 120.9140625 C27.1660061 124.89932127 27.28511533 128.87835363 27.35693359 132.86474609 C27.40154163 134.87786372 27.47782792 136.89019936 27.5546875 138.90234375 C27.66076512 145.93882555 27.59517765 150.89095291 22.81494141 156.30078125 C22.22503418 156.83316406 21.63512695 157.36554688 21.02734375 157.9140625 C20.28942911 158.59713785 19.55151447 159.2802132 18.79123878 159.98398781 C15.53947856 162.25474702 13.94143708 162.41262605 10.01742554 162.40853882 C8.81166367 162.4169278 7.60590179 162.42531677 6.36360168 162.43395996 C5.04913559 162.42272095 3.73466949 162.41148193 2.38037109 162.39990234 C0.97564846 162.40204929 -0.42907243 162.40592861 -1.83378601 162.41140747 C-5.64159676 162.42108821 -9.44893753 162.40581509 -13.25669146 162.38550138 C-17.24179063 162.36791795 -21.22687556 162.37145567 -25.21200562 162.3722229 C-31.90183364 162.37035092 -38.59148002 162.35299873 -45.28125 162.32568359 C-53.01857622 162.29420816 -60.75570371 162.28368834 -68.49308932 162.2851547 C-75.935651 162.28637475 -83.37814792 162.27617025 -90.82069016 162.25957108 C-93.98889038 162.25250552 -97.1570677 162.24884461 -100.32527542 162.24778366 C-104.05338899 162.2457767 -107.78133531 162.23358292 -111.50939369 162.21345139 C-113.53290214 162.20481007 -115.55644489 162.20594542 -117.57997131 162.20733643 C-118.78009354 162.19880646 -119.98021576 162.19027649 -121.21670532 162.18148804 C-122.26197702 162.17813635 -123.30724873 162.17478466 -124.38419533 162.17133141 C-126.97265625 161.9140625 -126.97265625 161.9140625 -129.97265625 159.9140625 C-129.97265625 159.2540625 -129.97265625 158.5940625 -129.97265625 157.9140625 C-130.73578125 157.7078125 -131.49890625 157.5015625 -132.28515625 157.2890625 C-136.00530138 155.38573243 -136.49864758 153.83058476 -137.97265625 149.9140625 C-138.40310357 146.23392766 -138.38259331 142.58102809 -138.36083984 138.87915039 C-138.3660968 137.77761124 -138.37135376 136.67607208 -138.37677002 135.54115295 C-138.38995481 131.90619656 -138.38123632 128.27167947 -138.37109375 124.63671875 C-138.37311506 122.10615454 -138.37602697 119.5755909 -138.37979126 117.04502869 C-138.3842127 111.74325473 -138.37807698 106.44163755 -138.36376953 101.13989258 C-138.34745269 95.02317926 -138.35272716 88.90676612 -138.36924875 82.7900601 C-138.38454041 76.89112178 -138.38287408 70.99227614 -138.37410355 65.09332085 C-138.37210447 62.58991898 -138.37455053 60.08650943 -138.38154221 57.58311653 C-138.38917544 54.08132884 -138.37752494 50.58011424 -138.36083984 47.07836914 C-138.36691254 46.04697815 -138.37298523 45.01558716 -138.37924194 43.95294189 C-138.31502063 36.66370781 -137.56751353 31.5692653 -132.28515625 26.1640625 C-124.5528737 20.44480728 -116.28796832 20.2934783 -106.97265625 19.9140625 C-106.97265625 19.2540625 -106.97265625 18.5940625 -106.97265625 17.9140625 C-105.85890625 17.73230469 -104.74515625 17.55054687 -103.59765625 17.36328125 C-95.69115897 16.06484843 -87.79092062 14.73634639 -79.91015625 13.2890625 C-79.22630859 13.16619873 -78.54246094 13.04333496 -77.83789062 12.91674805 C-74.62724224 12.52217528 -74.62724224 12.52217528 -71.97265625 10.9140625 C-68.61738411 10.33681138 -65.25087253 9.88320564 -61.87890625 9.4140625 C-59.08790342 9.22163545 -59.08790342 9.22163545 -57.97265625 7.9140625 C-55.70696388 7.58483375 -53.4345234 7.30175536 -51.16015625 7.0390625 C-43.15591622 6.05086108 -35.44860833 4.40604653 -27.78515625 1.8515625 C-19.81607135 -0.80479913 -7.74875886 -4.26565339 0 0 Z " fill="#EDEEF1" transform="translate(137.97265625,6.0859375)"/>
<path d="M0 0 C0.97751724 -0.00428513 1.95503448 -0.00857025 2.96217346 -0.01298523 C5.02563707 -0.01871779 7.08912089 -0.01923672 9.15258789 -0.01489258 C12.30194719 -0.01173325 15.45036615 -0.03520333 18.59960938 -0.06054688 C20.60807174 -0.0628201 22.61653661 -0.06352325 24.625 -0.0625 C25.56266708 -0.07170975 26.50033417 -0.08091949 27.46641541 -0.09040833 C32.64599362 -0.0539264 36.49865967 0.22230482 40.87890625 3.30078125 C44.38767141 7.39225949 44.30382158 11.58261616 44.2421875 16.7421875 C44.24293526 17.94922585 44.24293526 17.94922585 44.24369812 19.1806488 C44.24136485 20.87591023 44.23168047 22.57117559 44.21508789 24.26635742 C44.19145235 26.85822555 44.19453782 29.44906674 44.20117188 32.04101562 C44.19559591 33.69141237 44.18848654 35.34180479 44.1796875 36.9921875 C44.18059891 37.76518692 44.18151031 38.53818634 44.18244934 39.33460999 C44.08879695 46.45115242 44.08879695 46.45115242 41.87890625 49.30078125 C37.24617498 53.43383517 31.56433886 52.78596669 25.69921875 52.8046875 C24.07003006 52.8196653 24.07003006 52.8196653 22.40792847 52.83494568 C20.11329959 52.85011414 17.81860474 52.85717187 15.52392578 52.85668945 C12.02264808 52.86324615 8.52421312 52.91773224 5.0234375 52.97460938 C2.79037425 52.98341295 0.55729757 52.98936616 -1.67578125 52.9921875 C-3.23859329 53.02452232 -3.23859329 53.02452232 -4.83297729 53.05751038 C-10.96217634 53.00004032 -14.42999552 52.18807806 -18.89456177 47.88194275 C-21.73298461 44.22284133 -21.26627008 40.06623401 -21.25390625 35.67578125 C-21.25486298 34.93247559 -21.2558197 34.18916992 -21.25680542 33.42333984 C-21.25748534 31.85318924 -21.25564418 30.28303581 -21.25146484 28.71289062 C-21.2461139 26.3098316 -21.25141617 23.90695947 -21.2578125 21.50390625 C-21.25715169 19.97786417 -21.25587045 18.45182221 -21.25390625 16.92578125 C-21.25593048 16.20696777 -21.25795471 15.4881543 -21.26004028 14.74755859 C-21.24551661 11.65684618 -21.10635683 9.25657048 -20.12109375 6.30078125 C-13.74220942 0.45347061 -8.30597459 -0.00805597 0 0 Z M-5.55859375 22.48828125 C-7.35930919 25.14803463 -7.35930919 25.14803463 -6.99609375 27.92578125 C-6.14734699 30.51366082 -6.14734699 30.51366082 -4.12109375 33.30078125 C0.22477453 33.69586018 2.19894122 33.75409127 5.87890625 31.30078125 C6.88823371 28.35043943 7.12298738 26.90284805 5.94140625 23.98828125 C5.59078125 23.43140625 5.24015625 22.87453125 4.87890625 22.30078125 C4.21890625 22.30078125 3.55890625 22.30078125 2.87890625 22.30078125 C2.87890625 21.64078125 2.87890625 20.98078125 2.87890625 20.30078125 C-1.05863497 19.85333338 -2.54244625 19.78148221 -5.55859375 22.48828125 Z " fill="#03A55F" transform="translate(136.12109375,70.69921875)"/>
<path d="M0 0 C1.33984375 1.3515625 1.33984375 1.3515625 3.02734375 3.9140625 C3.52234375 4.4090625 3.52234375 4.4090625 4.02734375 4.9140625 C4.29130805 7.75314524 4.49606534 10.56887621 4.65234375 13.4140625 C4.70390625 14.21199219 4.75546875 15.00992187 4.80859375 15.83203125 C4.92550313 17.85731437 4.98124987 19.88593162 5.02734375 21.9140625 C3.26152012 23.67988613 0.92362376 23.03391811 -1.42782593 23.03848267 C-2.60062607 23.03308975 -2.60062607 23.03308975 -3.79711914 23.02758789 C-4.61656509 23.02773392 -5.43601105 23.02787994 -6.2802887 23.0280304 C-9.00198978 23.02733102 -11.7236233 23.01953751 -14.4453125 23.01171875 C-16.32718366 23.00985466 -18.20905531 23.00843071 -20.09092712 23.00743103 C-25.05414154 23.00360517 -30.01732689 22.99377431 -34.98052979 22.98272705 C-40.04105231 22.9725144 -45.10157952 22.96793372 -50.16210938 22.96289062 C-60.09897113 22.9521521 -70.03581128 22.93507486 -79.97265625 22.9140625 C-79.97265625 22.5840625 -79.97265625 22.2540625 -79.97265625 21.9140625 C-78.41106566 21.43194036 -76.84833697 20.95350377 -75.28515625 20.4765625 C-74.41503906 20.20972656 -73.54492188 19.94289063 -72.6484375 19.66796875 C-70.10239704 18.95061721 -67.57231395 18.3965215 -64.97265625 17.9140625 C-64.97265625 17.2540625 -64.97265625 16.5940625 -64.97265625 15.9140625 C-59.69265625 14.5940625 -54.41265625 13.2740625 -48.97265625 11.9140625 C-48.97265625 10.9240625 -48.97265625 9.9340625 -48.97265625 8.9140625 C-52.27265625 9.2440625 -55.57265625 9.5740625 -58.97265625 9.9140625 C-58.64265625 9.2540625 -58.31265625 8.5940625 -57.97265625 7.9140625 C-55.71602506 7.51162497 -53.4395291 7.21904897 -51.16015625 6.9765625 C-43.14199237 6.04035865 -35.45702862 4.40885329 -27.78515625 1.8515625 C-19.81607135 -0.80479913 -7.74875886 -4.26565339 0 0 Z " fill="#05A45F" transform="translate(137.97265625,6.0859375)"/>
<path d="M0 0 C2.75541841 -0.27613568 5.25091102 -0.37257625 8 -0.3125 C9.10601562 -0.31733398 9.10601562 -0.31733398 10.234375 -0.32226562 C15.73292051 -0.26707949 15.73292051 -0.26707949 18 2 C18.24050903 4.4803772 18.24050903 4.4803772 18.22705078 7.64306641 C18.22689972 8.82413971 18.22674866 10.00521301 18.22659302 11.22207642 C18.21627045 12.50230682 18.20594788 13.78253723 18.1953125 15.1015625 C18.1924826 16.40829926 18.18965271 17.71503601 18.18673706 19.06137085 C18.17909776 22.53682081 18.1594469 26.01210383 18.1373291 29.48748779 C18.11687696 33.03330222 18.10773671 36.5791436 18.09765625 40.125 C18.07620114 47.08340886 18.04101667 54.04167923 18 61 C11.73 61 5.46 61 -1 61 C-2.28815954 58.42368091 -2.13405861 56.56466478 -2.14526367 53.67993164 C-2.15164352 52.56860367 -2.15802338 51.4572757 -2.16459656 50.31227112 C-2.16570938 49.10707321 -2.1668222 47.90187531 -2.16796875 46.66015625 C-2.17129715 45.42712265 -2.17462555 44.19408905 -2.17805481 42.9236908 C-2.18312528 40.31184259 -2.1854631 37.69998789 -2.18530273 35.08813477 C-2.1852213 32.40610029 -2.19218723 29.72423593 -2.20581055 27.04223633 C-2.22407244 23.18565611 -2.22903666 19.3292753 -2.23046875 15.47265625 C-2.23765427 14.26948257 -2.24483978 13.0663089 -2.25224304 11.82667542 C-2.24916641 10.71219528 -2.24608978 9.59771515 -2.24291992 8.44946289 C-2.24505745 6.97625328 -2.24505745 6.97625328 -2.24723816 5.47328186 C-2 3 -2 3 0 0 Z " fill="#1AAD6C" transform="translate(84,83)"/>
<path d="M0 0 C1.58206057 0.00667536 3.16410534 0.0186375 4.74609375 0.03515625 C5.55240234 0.03966797 6.35871094 0.04417969 7.18945312 0.04882812 C9.18753131 0.06065107 11.18557158 0.07858711 13.18359375 0.09765625 C13.18359375 1.08765625 13.18359375 2.07765625 13.18359375 3.09765625 C13.84359375 3.09765625 14.50359375 3.09765625 15.18359375 3.09765625 C15.18359375 16.29765625 15.18359375 29.49765625 15.18359375 43.09765625 C12.88705675 44.24592475 11.60046208 44.213268 9.05078125 44.1953125 C8.24511719 44.19208984 7.43945312 44.18886719 6.609375 44.18554688 C5.34673828 44.17297852 5.34673828 44.17297852 4.05859375 44.16015625 C3.20910156 44.15564453 2.35960938 44.15113281 1.484375 44.14648438 C-0.61591534 44.13468499 -2.71616955 44.11674931 -4.81640625 44.09765625 C-4.84105138 37.99210915 -4.85923996 31.88659074 -4.87133789 25.78100586 C-4.87637913 23.70222469 -4.88321199 21.62344709 -4.8918457 19.54467773 C-4.90392047 16.56363039 -4.90963649 13.58262976 -4.9140625 10.6015625 C-4.92180443 9.19844566 -4.92180443 9.19844566 -4.92970276 7.76698303 C-4.92977829 6.90616623 -4.92985382 6.04534943 -4.92993164 5.15844727 C-4.93215225 4.3967775 -4.93437286 3.63510773 -4.93666077 2.85035706 C-4.70032787 -0.59417762 -3.57378835 0.09144801 0 0 Z " fill="#06A460" transform="translate(62.81640625,99.90234375)"/>
<path d="M0 0 C0.70189453 0.01353516 1.40378906 0.02707031 2.12695312 0.04101562 C3.85579829 0.07629818 5.58424765 0.13010417 7.3125 0.1875 C7.3125 0.8475 7.3125 1.5075 7.3125 2.1875 C7.9725 2.1875 8.6325 2.1875 9.3125 2.1875 C9.3125 10.4375 9.3125 18.6875 9.3125 27.1875 C6.198125 27.208125 3.08375 27.22875 -0.125 27.25 C-1.59924438 27.26365601 -1.59924438 27.26365601 -3.10327148 27.27758789 C-3.87227783 27.28008545 -4.64128418 27.28258301 -5.43359375 27.28515625 C-6.22435303 27.29039307 -7.0151123 27.29562988 -7.82983398 27.30102539 C-9.6875 27.1875 -9.6875 27.1875 -10.6875 26.1875 C-10.96756266 22.40325935 -10.91930637 18.60587268 -10.9375 14.8125 C-10.958125 13.74515625 -10.97875 12.6778125 -11 11.578125 C-11.00773437 10.04285156 -11.00773437 10.04285156 -11.015625 8.4765625 C-11.0249707 7.53506348 -11.03431641 6.59356445 -11.04394531 5.62353516 C-10.6875 3.1875 -10.6875 3.1875 -9.39038086 1.37524414 C-6.545194 -0.6092482 -3.33218358 -0.12134002 0 0 Z " fill="#08A660" transform="translate(42.6875,116.8125)"/>
<path d="M0 0 C0.97751724 -0.00428513 1.95503448 -0.00857025 2.96217346 -0.01298523 C5.02563707 -0.01871779 7.08912089 -0.01923672 9.15258789 -0.01489258 C12.30194719 -0.01173325 15.45036615 -0.03520333 18.59960938 -0.06054688 C20.60807174 -0.0628201 22.61653661 -0.06352325 24.625 -0.0625 C25.56266708 -0.07170975 26.50033417 -0.08091949 27.46641541 -0.09040833 C32.64599362 -0.0539264 36.49865967 0.22230482 40.87890625 3.30078125 C44.38767141 7.39225949 44.30382158 11.58261616 44.2421875 16.7421875 C44.24293526 17.94922585 44.24293526 17.94922585 44.24369812 19.1806488 C44.24136485 20.87591023 44.23168047 22.57117559 44.21508789 24.26635742 C44.19145235 26.85822555 44.19453782 29.44906674 44.20117188 32.04101562 C44.19559591 33.69141237 44.18848654 35.34180479 44.1796875 36.9921875 C44.18059891 37.76518692 44.18151031 38.53818634 44.18244934 39.33460999 C44.08879695 46.45115242 44.08879695 46.45115242 41.87890625 49.30078125 C37.24617498 53.43383517 31.56433886 52.78596669 25.69921875 52.8046875 C24.07003006 52.8196653 24.07003006 52.8196653 22.40792847 52.83494568 C20.11329959 52.85011414 17.81860474 52.85717187 15.52392578 52.85668945 C12.02264808 52.86324615 8.52421312 52.91773224 5.0234375 52.97460938 C2.79037425 52.98341295 0.55729757 52.98936616 -1.67578125 52.9921875 C-3.23859329 53.02452232 -3.23859329 53.02452232 -4.83297729 53.05751038 C-10.96217634 53.00004032 -14.42999552 52.18807806 -18.89456177 47.88194275 C-21.73298461 44.22284133 -21.26627008 40.06623401 -21.25390625 35.67578125 C-21.25486298 34.93247559 -21.2558197 34.18916992 -21.25680542 33.42333984 C-21.25748534 31.85318924 -21.25564418 30.28303581 -21.25146484 28.71289062 C-21.2461139 26.3098316 -21.25141617 23.90695947 -21.2578125 21.50390625 C-21.25715169 19.97786417 -21.25587045 18.45182221 -21.25390625 16.92578125 C-21.25593048 16.20696777 -21.25795471 15.4881543 -21.26004028 14.74755859 C-21.24551661 11.65684618 -21.10635683 9.25657048 -20.12109375 6.30078125 C-13.74220942 0.45347061 -8.30597459 -0.00805597 0 0 Z M-17.12109375 5.30078125 C-19.641328 9.08113262 -19.46208657 12.1614374 -19.4921875 16.546875 C-19.50121597 17.35439713 -19.51024445 18.16191925 -19.51954651 18.99391174 C-19.53404699 20.70106296 -19.54293525 22.40826972 -19.54663086 24.11547852 C-19.55853648 26.72572418 -19.60772684 29.33361208 -19.65820312 31.94335938 C-19.6676666 33.60285305 -19.674902 35.26236124 -19.6796875 36.921875 C-19.69921982 37.70114853 -19.71875214 38.48042206 -19.73887634 39.28330994 C-19.70618421 43.21419298 -19.51070098 44.90288534 -16.71118164 47.76196289 C-13.25147955 49.81743488 -11.47084717 50.43156164 -7.4753418 50.4777832 C-6.51061447 50.49061844 -5.54588715 50.50345367 -4.55192566 50.51667786 C-3.50611832 50.52406479 -2.46031097 50.53145172 -1.3828125 50.5390625 C-0.30989456 50.54713425 0.76302338 50.55520599 1.86845398 50.56352234 C4.14234802 50.57736985 6.41626292 50.58808901 8.69018555 50.59594727 C12.16690487 50.61315995 15.64267345 50.65704113 19.11914062 50.70117188 C21.32681591 50.7112986 23.5344993 50.71981476 25.7421875 50.7265625 C26.78192215 50.74407059 27.8216568 50.76157867 28.89289856 50.77961731 C33.14087921 50.76686022 36.15414673 50.64030368 40.03344727 48.82299805 C42.73976378 45.1242342 42.59830104 42.0018319 42.54296875 37.51953125 C42.54775238 36.66903198 42.55253601 35.81853271 42.5574646 34.94226074 C42.56086199 33.14687243 42.55167061 31.35142212 42.53076172 29.55615234 C42.50399092 26.80946808 42.53051179 24.06686981 42.5625 21.3203125 C42.55919587 19.57420974 42.55278956 17.82810952 42.54296875 16.08203125 C42.5530899 15.26214722 42.56321106 14.44226318 42.57363892 13.59753418 C42.49639748 9.83565428 42.2972051 7.87486458 40.04272461 4.78076172 C35.26082119 2.54386855 30.81027646 2.76880761 25.59375 2.83984375 C23.95388878 2.84121841 23.95388878 2.84121841 22.28089905 2.84262085 C19.97359872 2.84865408 17.66630613 2.8643916 15.35913086 2.88916016 C11.82571595 2.92568502 8.29334968 2.93017927 4.75976562 2.9296875 C2.51691801 2.93951827 0.27407751 2.9511751 -1.96875 2.96484375 C-3.02610855 2.9670694 -4.0834671 2.96929504 -5.17286682 2.97158813 C-6.15746384 2.98434784 -7.14206085 2.99710754 -8.15649414 3.01025391 C-9.0207753 3.0178775 -9.88505646 3.0255011 -10.77552795 3.03335571 C-13.36072376 3.32810224 -14.93858232 3.89444149 -17.12109375 5.30078125 Z " fill="#3BB781" transform="translate(136.12109375,70.69921875)"/>
<path d="M0 0 C0.99 0.66 1.98 1.32 3 2 C3.41151104 4.91878902 3.64954896 7.63267809 3.75 10.5625 C3.81380859 11.75262695 3.81380859 11.75262695 3.87890625 12.96679688 C3.9715657 14.97613429 3.9916102 16.98854475 4 19 C2.23417637 20.76582363 -0.10371999 20.11985561 -2.45516968 20.12442017 C-3.62796982 20.11902725 -3.62796982 20.11902725 -4.82446289 20.11352539 C-5.64390884 20.11367142 -6.4633548 20.11381744 -7.30763245 20.1139679 C-10.02933353 20.11326852 -12.75096705 20.10547501 -15.47265625 20.09765625 C-17.35452741 20.09579216 -19.23639906 20.09436821 -21.11827087 20.09336853 C-26.08148529 20.08954267 -31.04467064 20.07971181 -36.00787354 20.06866455 C-41.06839606 20.0584519 -46.12892327 20.05387122 -51.18945312 20.04882812 C-61.12631488 20.0380896 -71.06315503 20.02101236 -81 20 C-81 19.67 -81 19.34 -81 19 C-76.34083852 17.1742155 -72.19813652 16.72201204 -67.25048828 16.77294922 C-66.49858719 16.77265717 -65.7466861 16.77236511 -64.97200012 16.77206421 C-62.50465055 16.77344948 -60.03760885 16.78897252 -57.5703125 16.8046875 C-55.85253057 16.80842049 -54.1347465 16.81126611 -52.41696167 16.81326294 C-47.90915994 16.82087689 -43.40148833 16.84050605 -38.89373779 16.8626709 C-34.28855143 16.88317765 -29.68334392 16.89227497 -25.078125 16.90234375 C-16.05201714 16.92375417 -7.02603978 16.95891796 2 17 C1.01 8.585 1.01 8.585 0 0 Z " fill="#42BB83" transform="translate(139,9)"/>
<path d="M0 0 C0.97468735 -0.00287018 1.94937469 -0.00574036 2.95359802 -0.00869751 C5.00512272 -0.01073079 7.05666714 -0.00525269 9.1081543 0.00732422 C12.23986276 0.0234055 15.37028415 0.0074412 18.50195312 -0.01171875 C20.50130492 -0.00973653 22.50065591 -0.00589329 24.5 0 C25.89708946 -0.00910904 25.89708946 -0.00910904 27.32240295 -0.0184021 C33.5315072 0.04848156 38.10594333 0.82078708 42.68359375 5.3984375 C42.35359375 6.3884375 42.02359375 7.3784375 41.68359375 8.3984375 C41.0913501 7.74721924 40.49910645 7.09600098 39.88891602 6.42504883 C35.14957338 3.42853095 30.89408253 3.88148303 25.3984375 3.97265625 C24.30519669 3.97594437 23.21195587 3.97923248 22.08558655 3.98262024 C19.77826978 3.99302919 17.47097899 4.0129588 15.16381836 4.04174805 C11.63055038 4.08581954 8.09796198 4.10318637 4.56445312 4.11523438 C2.32160478 4.12865909 0.07876479 4.14358223 -2.1640625 4.16015625 C-3.75010033 4.17123665 -3.75010033 4.17123665 -5.36817932 4.18254089 C-6.84507484 4.20179375 -6.84507484 4.20179375 -8.35180664 4.22143555 C-9.2160878 4.23127975 -10.08036896 4.24112396 -10.97084045 4.25126648 C-13.21000499 4.39176142 -15.16618442 4.77624656 -17.31640625 5.3984375 C-17.31640625 4.7384375 -17.31640625 4.0784375 -17.31640625 3.3984375 C-11.4178003 0.35103458 -6.58169992 -0.04300623 0 0 Z " fill="#47BE8A" transform="translate(136.31640625,70.6015625)"/>
<path d="M0 0 C0.70189453 0.01353516 1.40378906 0.02707031 2.12695312 0.04101562 C3.85579829 0.07629818 5.58424765 0.13010417 7.3125 0.1875 C7.3125 0.8475 7.3125 1.5075 7.3125 2.1875 C7.9725 2.1875 8.6325 2.1875 9.3125 2.1875 C9.3125 10.4375 9.3125 18.6875 9.3125 27.1875 C7.0025 27.1875 4.6925 27.1875 2.3125 27.1875 C3.6325 26.5275 4.9525 25.8675 6.3125 25.1875 C6.3125 17.9275 6.3125 10.6675 6.3125 3.1875 C1.3625 2.8575 -3.5875 2.5275 -8.6875 2.1875 C-8.6875 10.4375 -8.6875 18.6875 -8.6875 27.1875 C-9.3475 26.8575 -10.0075 26.5275 -10.6875 26.1875 C-10.774485 22.41681168 -10.82788579 18.64638068 -10.875 14.875 C-10.90013672 13.80314453 -10.92527344 12.73128906 -10.95117188 11.62695312 C-10.96083984 10.59892578 -10.97050781 9.57089844 -10.98046875 8.51171875 C-10.9961792 7.56385498 -11.01188965 6.61599121 -11.02807617 5.6394043 C-10.6875 3.1875 -10.6875 3.1875 -9.39257812 1.37304688 C-6.54459615 -0.6071651 -3.33257353 -0.12135422 0 0 Z " fill="#5BC394" transform="translate(42.6875,116.8125)"/>
<path d="M0 0 C1.58206057 0.00667536 3.16410534 0.0186375 4.74609375 0.03515625 C5.55240234 0.03966797 6.35871094 0.04417969 7.18945312 0.04882812 C9.18753131 0.06065107 11.18557158 0.07858711 13.18359375 0.09765625 C12.85359375 1.08765625 12.52359375 2.07765625 12.18359375 3.09765625 C7.23359375 3.42765625 2.28359375 3.75765625 -2.81640625 4.09765625 C-2.81640625 17.29765625 -2.81640625 30.49765625 -2.81640625 44.09765625 C-3.47640625 44.09765625 -4.13640625 44.09765625 -4.81640625 44.09765625 C-4.84105138 37.99210915 -4.85923996 31.88659074 -4.87133789 25.78100586 C-4.87637913 23.70222469 -4.88321199 21.62344709 -4.8918457 19.54467773 C-4.90392047 16.56363039 -4.90963649 13.58262976 -4.9140625 10.6015625 C-4.92180443 9.19844566 -4.92180443 9.19844566 -4.92970276 7.76698303 C-4.92977829 6.90616623 -4.92985382 6.04534943 -4.92993164 5.15844727 C-4.93215225 4.3967775 -4.93437286 3.63510773 -4.93666077 2.85035706 C-4.70032787 -0.59417762 -3.57378835 0.09144801 0 0 Z " fill="#28B070" transform="translate(62.81640625,99.90234375)"/>
<path d="M0 0 C-0.33 0.66 -0.66 1.32 -1 2 C-1.66 1.67 -2.32 1.34 -3 1 C-10.67863338 0.53212628 -18.36193975 1.25352291 -26 2 C-26 2.66 -26 3.32 -26 4 C-37.37438917 6.63239362 -48.30977568 8.65051646 -60 9 C-59.67 8.34 -59.34 7.68 -59 7 C-56.74336881 6.59756247 -54.46687285 6.30498647 -52.1875 6.0625 C-44.16933612 5.12629615 -36.48437237 3.49479079 -28.8125 0.9375 C-20.33900487 -1.88699838 -7.82251646 -5.21501097 0 0 Z " fill="#5C9C8C" transform="translate(139,7)"/>
<path d="M0 0 C0.98608749 0.00424484 0.98608749 0.00424484 1.99209595 0.00857544 C4.07044483 0.01967803 6.14834616 0.04476264 8.2265625 0.0703125 C9.64452498 0.08035519 11.06249429 0.08947877 12.48046875 0.09765625 C15.93764287 0.11958445 19.39455892 0.15404432 22.8515625 0.1953125 C22.5215625 1.1853125 22.1915625 2.1753125 21.8515625 3.1953125 C10.3015625 3.1953125 -1.2484375 3.1953125 -13.1484375 3.1953125 C-13.1484375 2.8653125 -13.1484375 2.5353125 -13.1484375 2.1953125 C-8.60291393 0.43673644 -4.86186898 -0.04155444 0 0 Z " fill="#3DB27D" transform="translate(71.1484375,25.8046875)"/>
<path d="M0 0 C0.99 0.66 1.98 1.32 3 2 C3.38384509 4.93597539 3.603843 7.68027373 3.6875 10.625 C3.72166016 11.42679688 3.75582031 12.22859375 3.79101562 13.0546875 C3.87356878 15.03596318 3.93845916 17.01796037 4 19 C2.68 19.33 1.36 19.66 0 20 C0 19.34 0 18.68 0 18 C-14.85 18 -29.7 18 -45 18 C-45 17.67 -45 17.34 -45 17 C-29.49 17 -13.98 17 2 17 C1.34 11.39 0.68 5.78 0 0 Z " fill="#4DBC8A" transform="translate(139,9)"/>
<path d="M0 0 C3.38619412 1.25141957 4.86304165 2.04456247 6.875 5.0625 C7.49154918 7.86866309 7.52943062 10.26107771 6.875 13.0625 C4.152607 16.3623703 2.55304009 16.97923192 -1.6875 17.5 C-5.125 17.0625 -5.125 17.0625 -7.5625 16.125 C-9.76107988 13.22287456 -9.80454042 10.87959773 -9.640625 7.296875 C-9.05494466 4.75892687 -8.38809279 3.70634483 -6.5 1.9375 C-3.125 0.0625 -3.125 0.0625 0 0 Z M-6.5625 4.25 C-8.36321544 6.90975338 -8.36321544 6.90975338 -8 9.6875 C-7.15125324 12.27537957 -7.15125324 12.27537957 -5.125 15.0625 C-0.77913172 15.45757893 1.19503497 15.51581002 4.875 13.0625 C5.88432746 10.11215818 6.11908113 8.6645668 4.9375 5.75 C4.586875 5.193125 4.23625 4.63625 3.875 4.0625 C3.215 4.0625 2.555 4.0625 1.875 4.0625 C1.875 3.4025 1.875 2.7425 1.875 2.0625 C-2.06254122 1.61505213 -3.5463525 1.54320096 -6.5625 4.25 Z " fill="#62C69A" transform="translate(137.125,88.9375)"/>
<path d="M0 0 C-0.33 0.66 -0.66 1.32 -1 2 C-1.66 1.67 -2.32 1.34 -3 1 C-11.43608898 0.32823736 -19.69493637 1.64209179 -28 3 C-26 0 -26 0 -22.25 -1.1875 C-15.32596813 -2.52945406 -6.02794758 -4.01863172 0 0 Z " fill="#6ECDA2" transform="translate(139,7)"/>
<path d="M0 0 C-5.86030021 2.57523622 -11.89801162 3.24322451 -18.1875 4.1875 C-19.98864258 4.47270508 -19.98864258 4.47270508 -21.82617188 4.76367188 C-22.97021484 4.93833984 -24.11425781 5.11300781 -25.29296875 5.29296875 C-26.3399292 5.4530542 -27.38688965 5.61313965 -28.46557617 5.77807617 C-31 6 -31 6 -33 5 C-31.05909174 3.05909174 -27.52706098 3.60080565 -24.9375 3.4375 C-23.64714844 3.35371094 -22.35679688 3.26992188 -21.02734375 3.18359375 C-20.02832031 3.12300781 -19.02929688 3.06242187 -18 3 C-18 2.34 -18 1.68 -18 1 C-15.75152519 0.63627613 -13.50113812 0.28435904 -11.25 -0.0625 C-9.99703125 -0.25972656 -8.7440625 -0.45695312 -7.453125 -0.66015625 C-4.49983411 -0.95080818 -2.7397586 -0.98935727 0 0 Z " fill="#9EA6B3" transform="translate(49,23)"/>
<path d="M0 0 C5.61 0 11.22 0 17 0 C16.67 0.99 16.34 1.98 16 3 C10.39 3 4.78 3 -1 3 C-0.67 2.01 -0.34 1.02 0 0 Z " fill="#47BC84" transform="translate(59,100)"/>
<path d="M0 0 C0 0.33 0 0.66 0 1 C-3.63 1.33 -7.26 1.66 -11 2 C-11 2.66 -11 3.32 -11 4 C-14.3 4.33 -17.6 4.66 -21 5 C-20.67 4.34 -20.34 3.68 -20 3 C-17.05078125 2.1484375 -17.05078125 2.1484375 -13.3125 1.375 C-11.48138672 0.98441406 -11.48138672 0.98441406 -9.61328125 0.5859375 C-6.32450755 0.05262285 -3.32206793 -0.1122665 0 0 Z " fill="#959EAC" transform="translate(79,16)"/>
<path d="M0 0 C0.671875 1.7421875 0.671875 1.7421875 1 4 C-0.109375 6.0703125 -0.109375 6.0703125 -1.75 8.125 C-2.28109375 8.80820313 -2.8121875 9.49140625 -3.359375 10.1953125 C-5 12 -5 12 -8 14 C-8 9.71464033 -5.7483722 8.15057301 -3 5 C-2.67 4.34 -2.34 3.68 -2 3 C-1.34 3 -0.68 3 0 3 C0 2.01 0 1.02 0 0 Z " fill="#B8BFC9" transform="translate(164,152)"/>
<path d="M0 0 C3.375 1.75 3.375 1.75 5.375 3.75 C5.045 4.74 4.715 5.73 4.375 6.75 C3.694375 6.13125 3.01375 5.5125 2.3125 4.875 C-1.08381234 2.4180932 -3.58518821 1.70054395 -7.625 0.75 C-4.57097184 -1.5710614 -3.73784673 -1.28891267 0 0 Z " fill="#60CA9C" transform="translate(173.625,72.25)"/>
<path d="M0 0 C-4.56327794 3.53286034 -8.49633208 3.32374517 -14 3 C-11.39395012 1.26263341 -9.92766764 0.54996173 -7 -0.1875 C-6.319375 -0.36667969 -5.63875 -0.54585937 -4.9375 -0.73046875 C-3 -1 -3 -1 0 0 Z " fill="#1DB271" transform="translate(87,20)"/>
<path d="M0 0 C0.99 0.33 1.98 0.66 3 1 C3 2.98 3 4.96 3 7 C0.69 7 -1.62 7 -4 7 C-2.68 6.34 -1.36 5.68 0 5 C0 3.35 0 1.7 0 0 Z " fill="#38B680" transform="translate(49,137)"/>
<path d="M0 0 C3.01217112 0.64449607 5.51655836 1.65022182 8.25 3.0625 C8.95640625 3.42472656 9.6628125 3.78695312 10.390625 4.16015625 C10.92171875 4.43730469 11.4528125 4.71445313 12 5 C12 5.66 12 6.32 12 7 C7.25 6.125 7.25 6.125 5 5 C5 4.34 5 3.68 5 3 C2.525 2.01 2.525 2.01 0 1 C0 0.67 0 0.34 0 0 Z " fill="#BDC2CC" transform="translate(3,161)"/>
<path d="M0 0 C0.66 0.33 1.32 0.66 2 1 C1.484375 1.515625 0.96875 2.03125 0.4375 2.5625 C-1.57265701 5.9710271 -0.79727396 8.23106857 0 12 C-0.99 11.34 -1.98 10.68 -3 10 C-3.66932271 3.86454183 -3.66932271 3.86454183 -1.5 1.0625 C-1.005 0.711875 -0.51 0.36125 0 0 Z " fill="#76D0A9" transform="translate(131,91)"/>
<path d="M0 0 C3.96 0.33 7.92 0.66 12 1 C12 1.33 12 1.66 12 2 C6.06 2.495 6.06 2.495 0 3 C0 2.01 0 1.02 0 0 Z " fill="#42BA84" transform="translate(122,5)"/>
</svg>
