<?xml version="1.0" encoding="UTF-8"?>
<svg version="1.1" xmlns="http://www.w3.org/2000/svg" width="180" height="180">
<path d="M0 0 C1.33984375 1.3515625 1.33984375 1.3515625 3.02734375 3.9140625 C3.35734375 4.2440625 3.68734375 4.5740625 4.02734375 4.9140625 C4.29130805 7.75314524 4.49606534 10.56887621 4.65234375 13.4140625 C4.70390625 14.21199219 4.75546875 15.00992187 4.80859375 15.83203125 C4.92550313 17.85731437 4.98124987 19.88593162 5.02734375 21.9140625 C3.00916167 23.93224458 -1.11840133 23.09923153 -3.88891602 23.11938477 C-5.1327153 23.13423416 -5.1327153 23.13423416 -6.40164185 23.14938354 C-9.15575254 23.1810937 -11.90988051 23.20579338 -14.6640625 23.23046875 C-16.56835898 23.25103007 -18.4726508 23.27202632 -20.37693787 23.29344177 C-25.39928431 23.34874735 -30.42167252 23.39811906 -35.4440918 23.44628906 C-40.5649794 23.49644229 -45.68580605 23.55216053 -50.80664062 23.60742188 C-60.86192715 23.71510717 -70.9172665 23.81652895 -80.97265625 23.9140625 C-79.85258682 23.91992874 -78.7325174 23.92579498 -77.57850647 23.93183899 C-67.00026241 23.98916099 -56.42222205 24.06197209 -45.84418583 24.14977741 C-40.40647438 24.19442114 -34.96883681 24.23369054 -29.53100586 24.26049805 C-24.27888778 24.28659075 -19.02705496 24.32703548 -13.77511406 24.37724876 C-11.7757975 24.39387714 -9.77643165 24.40541642 -7.77705574 24.41167641 C-4.96703624 24.42136139 -2.15773992 24.44947295 0.65209961 24.48168945 C1.47065933 24.48025436 2.28921906 24.47881927 3.13258362 24.4773407 C9.49103838 24.57980483 16.08189534 25.52732714 21.1484375 29.6328125 C21.80005859 30.51453125 21.80005859 30.51453125 22.46484375 31.4140625 C22.91730469 32.001875 23.36976563 32.5896875 23.8359375 33.1953125 C26.39398302 36.88560767 27.27748713 38.69025351 27.2578125 43.16796875 C27.25587891 44.18697266 27.25394531 45.20597656 27.25195312 46.25585938 C27.23970703 47.31869141 27.22746094 48.38152344 27.21484375 49.4765625 C27.21387695 51.07661133 27.21387695 51.07661133 27.21289062 52.70898438 C27.16772351 60.63330297 27.16772351 60.63330297 26.02734375 62.9140625 C22.39734375 62.9140625 18.76734375 62.9140625 15.02734375 62.9140625 C15.02734375 62.2540625 15.02734375 61.5940625 15.02734375 60.9140625 C14.03734375 60.9140625 13.04734375 60.9140625 12.02734375 60.9140625 C11.97126953 59.12548828 11.97126953 59.12548828 11.9140625 57.30078125 C11.84840343 55.7343435 11.78195607 54.16793866 11.71484375 52.6015625 C11.69228516 51.81587891 11.66972656 51.03019531 11.64648438 50.22070312 C11.61103516 49.46337891 11.57558594 48.70605469 11.5390625 47.92578125 C11.51287842 47.22928467 11.48669434 46.53278809 11.4597168 45.81518555 C10.88731463 43.29836133 10.05498968 42.50014322 8.02734375 40.9140625 C5.61508113 40.46512796 5.61508113 40.46512796 2.86535645 40.5398407 C1.79697037 40.53282639 0.72858429 40.52581207 -0.37217712 40.51858521 C-2.13024437 40.53005081 -2.13024437 40.53005081 -3.92382812 40.54174805 C-5.77531212 40.53627205 -5.77531212 40.53627205 -7.66419983 40.53068542 C-11.05067979 40.52396119 -14.43661177 40.53070395 -17.8230381 40.54401755 C-21.36505812 40.5553268 -24.9070638 40.55122495 -28.44909668 40.54927063 C-34.39759038 40.54838748 -40.34597015 40.55947224 -46.29443359 40.57788086 C-53.17398239 40.59904885 -60.05336428 40.6025585 -66.93293905 40.5963189 C-73.54789022 40.59062622 -80.16278254 40.59626976 -86.77772522 40.60749245 C-89.59425442 40.61213972 -92.41074766 40.61301173 -95.22727966 40.6109066 C-99.15874458 40.60867502 -103.09005041 40.6231255 -107.02148438 40.6394043 C-108.19352921 40.63692688 -109.36557404 40.63444946 -110.57313538 40.63189697 C-111.64152145 40.63898178 -112.70990753 40.64606659 -113.81066895 40.65336609 C-115.2054887 40.65644539 -115.2054887 40.65644539 -116.62848663 40.65958691 C-119.24308395 40.76092423 -119.24308395 40.76092423 -121.97265625 42.9140625 C-122.42558381 44.76874679 -122.42558381 44.76874679 -122.35360718 46.93077087 C-122.36629639 48.19051476 -122.36629639 48.19051476 -122.37924194 49.47570801 C-122.3701329 50.86046326 -122.3701329 50.86046326 -122.36083984 52.27319336 C-122.36872528 53.72943871 -122.36872528 53.72943871 -122.37677002 55.21510315 C-122.39001491 58.4365327 -122.38121528 61.65747134 -122.37109375 64.87890625 C-122.37311336 67.11088659 -122.37602384 69.34286629 -122.37979126 71.57484436 C-122.38422084 76.25821195 -122.37776371 80.94140815 -122.36376953 85.62475586 C-122.34668731 91.6353595 -122.35650894 97.64556103 -122.37448692 103.65614986 C-122.38531602 108.26716656 -122.38188224 112.87808759 -122.37410355 117.48910713 C-122.37209861 119.70554209 -122.37457105 121.92198567 -122.38154221 124.13841057 C-122.38914109 127.23435413 -122.37757363 130.32964248 -122.36083984 133.42553711 C-122.36691254 134.34668304 -122.37298523 135.26782898 -122.37924194 136.21688843 C-122.37078247 137.05953751 -122.362323 137.90218658 -122.35360718 138.77037048 C-122.35191056 139.86847754 -122.35191056 139.86847754 -122.35017967 140.98876858 C-121.84628135 143.5585492 -121.10832914 144.41089007 -118.97265625 145.9140625 C-116.5771958 146.36289009 -116.5771958 146.36289009 -113.84863281 146.2882843 C-112.25867493 146.29880577 -112.25867493 146.29880577 -110.63659668 146.30953979 C-109.47390259 146.30189606 -108.3112085 146.29425232 -107.11328125 146.28637695 C-105.27642761 146.29185295 -105.27642761 146.29185295 -103.40246582 146.29743958 C-100.04284289 146.30416365 -96.68377235 146.2974213 -93.32420349 146.28410745 C-89.81021069 146.27279788 -86.29623233 146.27690007 -82.78222656 146.27885437 C-76.88081093 146.27973751 -70.97951013 146.26865297 -65.078125 146.25024414 C-58.2531074 146.22907617 -51.42825804 146.2255665 -44.60321426 146.2318061 C-38.04058865 146.23749886 -31.47802234 146.23185515 -24.91540527 146.22063255 C-22.12120467 146.21598539 -19.32704033 146.21511322 -16.53283691 146.2172184 C-12.63250451 146.21945005 -8.73233245 146.20499922 -4.83203125 146.1887207 C-3.08799011 146.19243683 -3.08799011 146.19243683 -1.30871582 146.19622803 C-0.2487439 146.18914322 0.81122803 146.18205841 1.90332031 146.17475891 C2.82582581 146.17270604 3.7483313 146.17065317 4.6987915 146.16853809 C7.29987763 146.06533559 7.29987763 146.06533559 10.02734375 143.9140625 C10.95743265 141.1237958 11.21433144 139.14876708 11.34375 136.24609375 C11.38564453 135.35341797 11.42753906 134.46074219 11.47070312 133.54101562 C11.51001953 132.61224609 11.54933594 131.68347656 11.58984375 130.7265625 C11.65461914 129.31600586 11.65461914 129.31600586 11.72070312 127.87695312 C11.82672918 125.55616062 11.92753569 123.23513073 12.02734375 120.9140625 C16.97734375 120.9140625 21.92734375 120.9140625 27.02734375 120.9140625 C27.1660061 124.89932127 27.28511533 128.87835363 27.35693359 132.86474609 C27.40154163 134.87786372 27.47782792 136.89019936 27.5546875 138.90234375 C27.66076512 145.93882555 27.59517765 150.89095291 22.81494141 156.30078125 C22.22503418 156.83316406 21.63512695 157.36554688 21.02734375 157.9140625 C20.28942911 158.59713785 19.55151447 159.2802132 18.79123878 159.98398781 C15.53947856 162.25474702 13.94143708 162.41262605 10.01742554 162.40853882 C8.81166367 162.4169278 7.60590179 162.42531677 6.36360168 162.43395996 C5.04913559 162.42272095 3.73466949 162.41148193 2.38037109 162.39990234 C0.97564846 162.40204929 -0.42907243 162.40592861 -1.83378601 162.41140747 C-5.64159676 162.42108821 -9.44893753 162.40581509 -13.25669146 162.38550138 C-17.24179063 162.36791795 -21.22687556 162.37145567 -25.21200562 162.3722229 C-31.90183364 162.37035092 -38.59148002 162.35299873 -45.28125 162.32568359 C-53.01857622 162.29420816 -60.75570371 162.28368834 -68.49308932 162.2851547 C-75.935651 162.28637475 -83.37814792 162.27617025 -90.82069016 162.25957108 C-93.98889038 162.25250552 -97.1570677 162.24884461 -100.32527542 162.24778366 C-104.05338899 162.2457767 -107.78133531 162.23358292 -111.50939369 162.21345139 C-113.53290214 162.20481007 -115.55644489 162.20594542 -117.57997131 162.20733643 C-118.78009354 162.19880646 -119.98021576 162.19027649 -121.21670532 162.18148804 C-122.26197702 162.17813635 -123.30724873 162.17478466 -124.38419533 162.17133141 C-126.97265625 161.9140625 -126.97265625 161.9140625 -129.97265625 159.9140625 C-129.97265625 159.2540625 -129.97265625 158.5940625 -129.97265625 157.9140625 C-130.73578125 157.7078125 -131.49890625 157.5015625 -132.28515625 157.2890625 C-136.00530138 155.38573243 -136.49864758 153.83058476 -137.97265625 149.9140625 C-138.40310357 146.23392766 -138.38259331 142.58102809 -138.36083984 138.87915039 C-138.3660968 137.77761124 -138.37135376 136.67607208 -138.37677002 135.54115295 C-138.38995481 131.90619656 -138.38123632 128.27167947 -138.37109375 124.63671875 C-138.37311506 122.10615454 -138.37602697 119.5755909 -138.37979126 117.04502869 C-138.3842127 111.74325473 -138.37807698 106.44163755 -138.36376953 101.13989258 C-138.34745269 95.02317926 -138.35272716 88.90676612 -138.36924875 82.7900601 C-138.38454041 76.89112178 -138.38287408 70.99227614 -138.37410355 65.09332085 C-138.37210447 62.58991898 -138.37455053 60.08650943 -138.38154221 57.58311653 C-138.38917544 54.08132884 -138.37752494 50.58011424 -138.36083984 47.07836914 C-138.36691254 46.04697815 -138.37298523 45.01558716 -138.37924194 43.95294189 C-138.31502063 36.66370781 -137.56751353 31.5692653 -132.28515625 26.1640625 C-124.5528737 20.44480728 -116.28796832 20.2934783 -106.97265625 19.9140625 C-106.97265625 19.2540625 -106.97265625 18.5940625 -106.97265625 17.9140625 C-105.85890625 17.73230469 -104.74515625 17.55054687 -103.59765625 17.36328125 C-95.69115897 16.06484843 -87.79092062 14.73634639 -79.91015625 13.2890625 C-79.22630859 13.16619873 -78.54246094 13.04333496 -77.83789062 12.91674805 C-74.62724224 12.52217528 -74.62724224 12.52217528 -71.97265625 10.9140625 C-68.61738411 10.33681138 -65.25087253 9.88320564 -61.87890625 9.4140625 C-59.08790342 9.22163545 -59.08790342 9.22163545 -57.97265625 7.9140625 C-55.70696388 7.58483375 -53.4345234 7.30175536 -51.16015625 7.0390625 C-43.15591622 6.05086108 -35.44860833 4.40604653 -27.78515625 1.8515625 C-19.81607135 -0.80479913 -7.74875886 -4.26565339 0 0 Z " fill="#051D3C" transform="translate(137.97265625,6.0859375)"/>
<path d="M0 0 C0.97751724 -0.00428513 1.95503448 -0.00857025 2.96217346 -0.01298523 C5.02563707 -0.01871779 7.08912089 -0.01923672 9.15258789 -0.01489258 C12.30194719 -0.01173325 15.45036615 -0.03520333 18.59960938 -0.06054688 C20.60807174 -0.0628201 22.61653661 -0.06352325 24.625 -0.0625 C25.56266708 -0.07170975 26.50033417 -0.08091949 27.46641541 -0.09040833 C32.64599362 -0.0539264 36.49865967 0.22230482 40.87890625 3.30078125 C44.38767141 7.39225949 44.30382158 11.58261616 44.2421875 16.7421875 C44.24293526 17.94922585 44.24293526 17.94922585 44.24369812 19.1806488 C44.24136485 20.87591023 44.23168047 22.57117559 44.21508789 24.26635742 C44.19145235 26.85822555 44.19453782 29.44906674 44.20117188 32.04101562 C44.19559591 33.69141237 44.18848654 35.34180479 44.1796875 36.9921875 C44.18059891 37.76518692 44.18151031 38.53818634 44.18244934 39.33460999 C44.08879695 46.45115242 44.08879695 46.45115242 41.87890625 49.30078125 C37.24617498 53.43383517 31.56433886 52.78596669 25.69921875 52.8046875 C24.07003006 52.8196653 24.07003006 52.8196653 22.40792847 52.83494568 C20.11329959 52.85011414 17.81860474 52.85717187 15.52392578 52.85668945 C12.02264808 52.86324615 8.52421312 52.91773224 5.0234375 52.97460938 C2.79037425 52.98341295 0.55729757 52.98936616 -1.67578125 52.9921875 C-3.23859329 53.02452232 -3.23859329 53.02452232 -4.83297729 53.05751038 C-10.96217634 53.00004032 -14.42999552 52.18807806 -18.89456177 47.88194275 C-21.73298461 44.22284133 -21.26627008 40.06623401 -21.25390625 35.67578125 C-21.25486298 34.93247559 -21.2558197 34.18916992 -21.25680542 33.42333984 C-21.25748534 31.85318924 -21.25564418 30.28303581 -21.25146484 28.71289062 C-21.2461139 26.3098316 -21.25141617 23.90695947 -21.2578125 21.50390625 C-21.25715169 19.97786417 -21.25587045 18.45182221 -21.25390625 16.92578125 C-21.25593048 16.20696777 -21.25795471 15.4881543 -21.26004028 14.74755859 C-21.24551661 11.65684618 -21.10635683 9.25657048 -20.12109375 6.30078125 C-13.74220942 0.45347061 -8.30597459 -0.00805597 0 0 Z M-5.55859375 22.48828125 C-7.35930919 25.14803463 -7.35930919 25.14803463 -6.99609375 27.92578125 C-6.14734699 30.51366082 -6.14734699 30.51366082 -4.12109375 33.30078125 C0.22477453 33.69586018 2.19894122 33.75409127 5.87890625 31.30078125 C6.88823371 28.35043943 7.12298738 26.90284805 5.94140625 23.98828125 C5.59078125 23.43140625 5.24015625 22.87453125 4.87890625 22.30078125 C4.21890625 22.30078125 3.55890625 22.30078125 2.87890625 22.30078125 C2.87890625 21.64078125 2.87890625 20.98078125 2.87890625 20.30078125 C-1.05863497 19.85333338 -2.54244625 19.78148221 -5.55859375 22.48828125 Z " fill="#03A55F" transform="translate(136.12109375,70.69921875)"/>
<path d="M0 0 C1.33984375 1.3515625 1.33984375 1.3515625 3.02734375 3.9140625 C3.35734375 4.2440625 3.68734375 4.5740625 4.02734375 4.9140625 C4.29130805 7.75314524 4.49606534 10.56887621 4.65234375 13.4140625 C4.70390625 14.21199219 4.75546875 15.00992187 4.80859375 15.83203125 C4.92550313 17.85731437 4.98124987 19.88593162 5.02734375 21.9140625 C3.31904965 23.6223566 1.16729998 23.03378176 -1.11051941 23.03848267 C-1.84563248 23.03488739 -2.58074554 23.03129211 -3.33813477 23.02758789 C-4.10881287 23.02773392 -4.87949097 23.02787994 -5.67352295 23.0280304 C-8.23289764 23.0273311 -10.79220045 23.01953795 -13.3515625 23.01171875 C-15.1213324 23.00985463 -16.89110281 23.0084307 -18.66087341 23.00743103 C-23.32816991 23.00360538 -27.99543548 22.9937747 -32.66271973 22.98272705 C-37.4216266 22.97251394 -42.18053846 22.96793363 -46.93945312 22.96289062 C-56.28386778 22.95215247 -65.62825945 22.93507549 -74.97265625 22.9140625 C-74.97265625 21.9240625 -74.97265625 20.9340625 -74.97265625 19.9140625 C-65.77004604 15.97453563 -56.61624099 12.581437 -46.97265625 9.9140625 C-48.61936526 10.00332336 -50.26505066 10.11147281 -51.91015625 10.2265625 C-53.28494141 10.31357422 -53.28494141 10.31357422 -54.6875 10.40234375 C-57.44398332 10.83171273 -59.62311847 11.43283065 -62.2265625 12.35546875 C-67.08065128 14.0502482 -71.89208758 14.84157413 -76.97265625 15.5390625 C-82.40604004 15.84126359 -82.40604004 15.84126359 -86.97265625 17.9140625 C-92.04251145 18.84526039 -96.84383929 19.00404174 -101.97265625 18.9140625 C-101.97265625 19.5740625 -101.97265625 20.2340625 -101.97265625 20.9140625 C-103.05365601 21.09412842 -103.05365601 21.09412842 -104.15649414 21.27783203 C-107.45396705 21.84105429 -110.74407108 22.43968663 -114.03515625 23.0390625 C-115.16888672 23.22726563 -116.30261719 23.41546875 -117.47070312 23.609375 C-124.09719595 24.84580515 -129.89968983 26.157645 -133.97265625 31.9140625 C-136.37189954 37.44261858 -136.26856679 42.66618776 -136.26318359 48.58178711 C-136.26990082 49.64431198 -136.27661804 50.70683685 -136.28353882 51.80155945 C-136.30250422 55.30655621 -136.30644207 58.8113614 -136.30859375 62.31640625 C-136.31502179 64.75728941 -136.32175016 67.1981718 -136.32876587 69.63905334 C-136.34073435 74.75246976 -136.34444703 79.86581862 -136.34326172 84.97924805 C-136.34305835 91.52746355 -136.37038106 98.07524592 -136.40480614 104.62335873 C-136.42705366 109.66343675 -136.43109994 114.70341008 -136.43004227 119.74353218 C-136.43240066 122.15763405 -136.44123753 124.5717387 -136.456707 126.98579216 C-136.47632619 130.36315075 -136.4705445 133.73956929 -136.45849609 137.11694336 C-136.46973511 138.1109314 -136.48097412 139.10491943 -136.49255371 140.12902832 C-136.43707266 146.2565536 -135.61914048 149.93007652 -131.97265625 154.9140625 C-130.01414281 156.30762014 -128.02138512 157.65688797 -125.97265625 158.9140625 C-125.97265625 159.5740625 -125.97265625 160.2340625 -125.97265625 160.9140625 C-125.31265625 161.2440625 -124.65265625 161.5740625 -123.97265625 161.9140625 C-126.14139877 161.40802258 -127.97233252 160.91422437 -129.97265625 159.9140625 C-129.97265625 159.2540625 -129.97265625 158.5940625 -129.97265625 157.9140625 C-130.73578125 157.7078125 -131.49890625 157.5015625 -132.28515625 157.2890625 C-136.00530138 155.38573243 -136.49864758 153.83058476 -137.97265625 149.9140625 C-138.40310357 146.23392766 -138.38259331 142.58102809 -138.36083984 138.87915039 C-138.3660968 137.77761124 -138.37135376 136.67607208 -138.37677002 135.54115295 C-138.38995481 131.90619656 -138.38123632 128.27167947 -138.37109375 124.63671875 C-138.37311506 122.10615454 -138.37602697 119.5755909 -138.37979126 117.04502869 C-138.3842127 111.74325473 -138.37807698 106.44163755 -138.36376953 101.13989258 C-138.34745269 95.02317926 -138.35272716 88.90676612 -138.36924875 82.7900601 C-138.38454041 76.89112178 -138.38287408 70.99227614 -138.37410355 65.09332085 C-138.37210447 62.58991898 -138.37455053 60.08650943 -138.38154221 57.58311653 C-138.38917544 54.08132884 -138.37752494 50.58011424 -138.36083984 47.07836914 C-138.36691254 46.04697815 -138.37298523 45.01558716 -138.37924194 43.95294189 C-138.31502063 36.66370781 -137.56751353 31.5692653 -132.28515625 26.1640625 C-124.5528737 20.44480728 -116.28796832 20.2934783 -106.97265625 19.9140625 C-106.97265625 19.2540625 -106.97265625 18.5940625 -106.97265625 17.9140625 C-105.85890625 17.73230469 -104.74515625 17.55054687 -103.59765625 17.36328125 C-95.69115897 16.06484843 -87.79092062 14.73634639 -79.91015625 13.2890625 C-79.22630859 13.16619873 -78.54246094 13.04333496 -77.83789062 12.91674805 C-74.62724224 12.52217528 -74.62724224 12.52217528 -71.97265625 10.9140625 C-68.61738411 10.33681138 -65.25087253 9.88320564 -61.87890625 9.4140625 C-59.08790342 9.22163545 -59.08790342 9.22163545 -57.97265625 7.9140625 C-55.70696388 7.58483375 -53.4345234 7.30175536 -51.16015625 7.0390625 C-43.15591622 6.05086108 -35.44860833 4.40604653 -27.78515625 1.8515625 C-19.81607135 -0.80479913 -7.74875886 -4.26565339 0 0 Z " fill="#05A55F" transform="translate(137.97265625,6.0859375)"/>
<path d="M0 0 C2.75541841 -0.27613568 5.25091102 -0.37257625 8 -0.3125 C9.10601562 -0.31733398 9.10601562 -0.31733398 10.234375 -0.32226562 C15.73292051 -0.26707949 15.73292051 -0.26707949 18 2 C18.24050903 4.4803772 18.24050903 4.4803772 18.22705078 7.64306641 C18.22689972 8.82413971 18.22674866 10.00521301 18.22659302 11.22207642 C18.21627045 12.50230682 18.20594788 13.78253723 18.1953125 15.1015625 C18.1924826 16.40829926 18.18965271 17.71503601 18.18673706 19.06137085 C18.17909776 22.53682081 18.1594469 26.01210383 18.1373291 29.48748779 C18.11687696 33.03330222 18.10773671 36.5791436 18.09765625 40.125 C18.07620114 47.08340886 18.04101667 54.04167923 18 61 C11.73 61 5.46 61 -1 61 C-2.28815954 58.42368091 -2.13405861 56.56466478 -2.14526367 53.67993164 C-2.15164352 52.56860367 -2.15802338 51.4572757 -2.16459656 50.31227112 C-2.16570938 49.10707321 -2.1668222 47.90187531 -2.16796875 46.66015625 C-2.17129715 45.42712265 -2.17462555 44.19408905 -2.17805481 42.9236908 C-2.18312528 40.31184259 -2.1854631 37.69998789 -2.18530273 35.08813477 C-2.1852213 32.40610029 -2.19218723 29.72423593 -2.20581055 27.04223633 C-2.22407244 23.18565611 -2.22903666 19.3292753 -2.23046875 15.47265625 C-2.23765427 14.26948257 -2.24483978 13.0663089 -2.25224304 11.82667542 C-2.24916641 10.71219528 -2.24608978 9.59771515 -2.24291992 8.44946289 C-2.24505745 6.97625328 -2.24505745 6.97625328 -2.24723816 5.47328186 C-2 3 -2 3 0 0 Z " fill="#1AAD6C" transform="translate(84,83)"/>
<path d="M0 0 C1.58206057 0.00667536 3.16410534 0.0186375 4.74609375 0.03515625 C5.55240234 0.03966797 6.35871094 0.04417969 7.18945312 0.04882812 C9.18753131 0.06065107 11.18557158 0.07858711 13.18359375 0.09765625 C13.18359375 1.08765625 13.18359375 2.07765625 13.18359375 3.09765625 C13.84359375 3.09765625 14.50359375 3.09765625 15.18359375 3.09765625 C15.18359375 16.29765625 15.18359375 29.49765625 15.18359375 43.09765625 C12.88705675 44.24592475 11.60046208 44.213268 9.05078125 44.1953125 C8.24511719 44.19208984 7.43945312 44.18886719 6.609375 44.18554688 C5.34673828 44.17297852 5.34673828 44.17297852 4.05859375 44.16015625 C3.20910156 44.15564453 2.35960938 44.15113281 1.484375 44.14648438 C-0.61591534 44.13468499 -2.71616955 44.11674931 -4.81640625 44.09765625 C-4.84105138 37.99210915 -4.85923996 31.88659074 -4.87133789 25.78100586 C-4.87637913 23.70222469 -4.88321199 21.62344709 -4.8918457 19.54467773 C-4.90392047 16.56363039 -4.90963649 13.58262976 -4.9140625 10.6015625 C-4.92180443 9.19844566 -4.92180443 9.19844566 -4.92970276 7.76698303 C-4.92977829 6.90616623 -4.92985382 6.04534943 -4.92993164 5.15844727 C-4.93215225 4.3967775 -4.93437286 3.63510773 -4.93666077 2.85035706 C-4.70032787 -0.59417762 -3.57378835 0.09144801 0 0 Z " fill="#06A460" transform="translate(62.81640625,99.90234375)"/>
<path d="M0 0 C0.70189453 0.01353516 1.40378906 0.02707031 2.12695312 0.04101562 C3.85579829 0.07629818 5.58424765 0.13010417 7.3125 0.1875 C7.3125 0.8475 7.3125 1.5075 7.3125 2.1875 C7.9725 2.1875 8.6325 2.1875 9.3125 2.1875 C9.3125 10.4375 9.3125 18.6875 9.3125 27.1875 C6.198125 27.208125 3.08375 27.22875 -0.125 27.25 C-1.59924438 27.26365601 -1.59924438 27.26365601 -3.10327148 27.27758789 C-3.87227783 27.28008545 -4.64128418 27.28258301 -5.43359375 27.28515625 C-6.22435303 27.29039307 -7.0151123 27.29562988 -7.82983398 27.30102539 C-9.6875 27.1875 -9.6875 27.1875 -10.6875 26.1875 C-10.96756266 22.40325935 -10.91930637 18.60587268 -10.9375 14.8125 C-10.958125 13.74515625 -10.97875 12.6778125 -11 11.578125 C-11.00773437 10.04285156 -11.00773437 10.04285156 -11.015625 8.4765625 C-11.0249707 7.53506348 -11.03431641 6.59356445 -11.04394531 5.62353516 C-10.6875 3.1875 -10.6875 3.1875 -9.39038086 1.37524414 C-6.545194 -0.6092482 -3.33218358 -0.12134002 0 0 Z " fill="#08A660" transform="translate(42.6875,116.8125)"/>
<path d="M0 0 C0.97751724 -0.00428513 1.95503448 -0.00857025 2.96217346 -0.01298523 C5.02563707 -0.01871779 7.08912089 -0.01923672 9.15258789 -0.01489258 C12.30194719 -0.01173325 15.45036615 -0.03520333 18.59960938 -0.06054688 C20.60807174 -0.0628201 22.61653661 -0.06352325 24.625 -0.0625 C25.56266708 -0.07170975 26.50033417 -0.08091949 27.46641541 -0.09040833 C32.64599362 -0.0539264 36.49865967 0.22230482 40.87890625 3.30078125 C44.38767141 7.39225949 44.30382158 11.58261616 44.2421875 16.7421875 C44.24293526 17.94922585 44.24293526 17.94922585 44.24369812 19.1806488 C44.24136485 20.87591023 44.23168047 22.57117559 44.21508789 24.26635742 C44.19145235 26.85822555 44.19453782 29.44906674 44.20117188 32.04101562 C44.19559591 33.69141237 44.18848654 35.34180479 44.1796875 36.9921875 C44.18059891 37.76518692 44.18151031 38.53818634 44.18244934 39.33460999 C44.08879695 46.45115242 44.08879695 46.45115242 41.87890625 49.30078125 C37.24617498 53.43383517 31.56433886 52.78596669 25.69921875 52.8046875 C24.07003006 52.8196653 24.07003006 52.8196653 22.40792847 52.83494568 C20.11329959 52.85011414 17.81860474 52.85717187 15.52392578 52.85668945 C12.02264808 52.86324615 8.52421312 52.91773224 5.0234375 52.97460938 C2.79037425 52.98341295 0.55729757 52.98936616 -1.67578125 52.9921875 C-3.23859329 53.02452232 -3.23859329 53.02452232 -4.83297729 53.05751038 C-10.96217634 53.00004032 -14.42999552 52.18807806 -18.89456177 47.88194275 C-21.73298461 44.22284133 -21.26627008 40.06623401 -21.25390625 35.67578125 C-21.25486298 34.93247559 -21.2558197 34.18916992 -21.25680542 33.42333984 C-21.25748534 31.85318924 -21.25564418 30.28303581 -21.25146484 28.71289062 C-21.2461139 26.3098316 -21.25141617 23.90695947 -21.2578125 21.50390625 C-21.25715169 19.97786417 -21.25587045 18.45182221 -21.25390625 16.92578125 C-21.25593048 16.20696777 -21.25795471 15.4881543 -21.26004028 14.74755859 C-21.24551661 11.65684618 -21.10635683 9.25657048 -20.12109375 6.30078125 C-13.74220942 0.45347061 -8.30597459 -0.00805597 0 0 Z M-17.12109375 5.30078125 C-19.641328 9.08113262 -19.46208657 12.1614374 -19.4921875 16.546875 C-19.50121597 17.35439713 -19.51024445 18.16191925 -19.51954651 18.99391174 C-19.53404699 20.70106296 -19.54293525 22.40826972 -19.54663086 24.11547852 C-19.55853648 26.72572418 -19.60772684 29.33361208 -19.65820312 31.94335938 C-19.6676666 33.60285305 -19.674902 35.26236124 -19.6796875 36.921875 C-19.69921982 37.70114853 -19.71875214 38.48042206 -19.73887634 39.28330994 C-19.70618421 43.21419298 -19.51070098 44.90288534 -16.71118164 47.76196289 C-13.25147955 49.81743488 -11.47084717 50.43156164 -7.4753418 50.4777832 C-6.51061447 50.49061844 -5.54588715 50.50345367 -4.55192566 50.51667786 C-3.50611832 50.52406479 -2.46031097 50.53145172 -1.3828125 50.5390625 C-0.30989456 50.54713425 0.76302338 50.55520599 1.86845398 50.56352234 C4.14234802 50.57736985 6.41626292 50.58808901 8.69018555 50.59594727 C12.16690487 50.61315995 15.64267345 50.65704113 19.11914062 50.70117188 C21.32681591 50.7112986 23.5344993 50.71981476 25.7421875 50.7265625 C26.78192215 50.74407059 27.8216568 50.76157867 28.89289856 50.77961731 C33.14087921 50.76686022 36.15414673 50.64030368 40.03344727 48.82299805 C42.73976378 45.1242342 42.59830104 42.0018319 42.54296875 37.51953125 C42.54775238 36.66903198 42.55253601 35.81853271 42.5574646 34.94226074 C42.56086199 33.14687243 42.55167061 31.35142212 42.53076172 29.55615234 C42.50399092 26.80946808 42.53051179 24.06686981 42.5625 21.3203125 C42.55919587 19.57420974 42.55278956 17.82810952 42.54296875 16.08203125 C42.5530899 15.26214722 42.56321106 14.44226318 42.57363892 13.59753418 C42.49639748 9.83565428 42.2972051 7.87486458 40.04272461 4.78076172 C35.26082119 2.54386855 30.81027646 2.76880761 25.59375 2.83984375 C23.95388878 2.84121841 23.95388878 2.84121841 22.28089905 2.84262085 C19.97359872 2.84865408 17.66630613 2.8643916 15.35913086 2.88916016 C11.82571595 2.92568502 8.29334968 2.93017927 4.75976562 2.9296875 C2.51691801 2.93951827 0.27407751 2.9511751 -1.96875 2.96484375 C-3.02610855 2.9670694 -4.0834671 2.96929504 -5.17286682 2.97158813 C-6.15746384 2.98434784 -7.14206085 2.99710754 -8.15649414 3.01025391 C-9.0207753 3.0178775 -9.88505646 3.0255011 -10.77552795 3.03335571 C-13.36072376 3.32810224 -14.93858232 3.89444149 -17.12109375 5.30078125 Z " fill="#3BB781" transform="translate(136.12109375,70.69921875)"/>
<path d="M0 0 C-0.33 0.66 -0.66 1.32 -1 2 C-1.99 1.505 -1.99 1.505 -3 1 C-10.67863338 0.53212628 -18.36193975 1.25352291 -26 2 C-26 2.66 -26 3.32 -26 4 C-35.8796054 6.16972144 -45.66520089 8.28237138 -55.7265625 9.41015625 C-58.43924221 9.89895653 -60.69488838 10.54476069 -63.2734375 11.45703125 C-68.1197858 13.14105306 -72.92999686 13.92896213 -78 14.625 C-83.43338379 14.92720109 -83.43338379 14.92720109 -88 17 C-93.0698552 17.93119789 -97.87118304 18.08997924 -103 18 C-103 18.66 -103 19.32 -103 20 C-104.08099976 20.18006592 -104.08099976 20.18006592 -105.18383789 20.36376953 C-108.4813108 20.92699179 -111.77141483 21.52562413 -115.0625 22.125 C-116.19623047 22.31320313 -117.32996094 22.50140625 -118.49804688 22.6953125 C-125.1245397 23.93174265 -130.92703358 25.2435825 -135 31 C-137.39924329 36.52855608 -137.29591054 41.75212526 -137.29052734 47.66772461 C-137.29724457 48.73024948 -137.30396179 49.79277435 -137.31088257 50.88749695 C-137.32984797 54.39249371 -137.33378582 57.8972989 -137.3359375 61.40234375 C-137.34236554 63.84322691 -137.34909391 66.2841093 -137.35610962 68.72499084 C-137.3680781 73.83840726 -137.37179078 78.95175612 -137.37060547 84.06518555 C-137.3704021 90.61340105 -137.39772481 97.16118342 -137.43214989 103.70929623 C-137.45439741 108.74937425 -137.45844369 113.78934758 -137.45738602 118.82946968 C-137.45974441 121.24357155 -137.46858128 123.6576762 -137.48405075 126.07172966 C-137.50366994 129.44908825 -137.49788825 132.82550679 -137.48583984 136.20288086 C-137.49707886 137.1968689 -137.50831787 138.19085693 -137.51989746 139.21496582 C-137.46441641 145.3424911 -136.64648423 149.01601402 -133 154 C-131.04148656 155.39355764 -129.04872887 156.74282547 -127 158 C-127 158.66 -127 159.32 -127 160 C-126.34 160.33 -125.68 160.66 -125 161 C-127.16874252 160.49396008 -128.99967627 160.00016187 -131 159 C-131 158.34 -131 157.68 -131 157 C-131.763125 156.79375 -132.52625 156.5875 -133.3125 156.375 C-137.03264513 154.47166993 -137.52599133 152.91652226 -139 149 C-139.43044732 145.31986516 -139.40993706 141.66696559 -139.38818359 137.96508789 C-139.39344055 136.86354874 -139.39869751 135.76200958 -139.40411377 134.62709045 C-139.41729856 130.99213406 -139.40858007 127.35761697 -139.3984375 123.72265625 C-139.40045881 121.19209204 -139.40337072 118.6615284 -139.40713501 116.13096619 C-139.41155645 110.82919223 -139.40542073 105.52757505 -139.39111328 100.22583008 C-139.37479644 94.10911676 -139.38007091 87.99270362 -139.3965925 81.8759976 C-139.41188416 75.97705928 -139.41021783 70.07821364 -139.4014473 64.17925835 C-139.39944822 61.67585648 -139.40189428 59.17244693 -139.40888596 56.66905403 C-139.41651919 53.16726634 -139.40486869 49.66605174 -139.38818359 46.16430664 C-139.39425629 45.13291565 -139.40032898 44.10152466 -139.40658569 43.03887939 C-139.34236438 35.74964531 -138.59485728 30.6552028 -133.3125 25.25 C-125.58021745 19.53074478 -117.31531207 19.3794158 -108 19 C-108 18.34 -108 17.68 -108 17 C-106.88625 16.81824219 -105.7725 16.63648437 -104.625 16.44921875 C-96.71850272 15.15078593 -88.81826437 13.82228389 -80.9375 12.375 C-80.25365234 12.25213623 -79.56980469 12.12927246 -78.86523438 12.00268555 C-75.65458599 11.60811278 -75.65458599 11.60811278 -73 10 C-69.64472786 9.42274888 -66.27821628 8.96914314 -62.90625 8.5 C-60.11524717 8.30757295 -60.11524717 8.30757295 -59 7 C-56.73430763 6.67077125 -54.46186715 6.38769286 -52.1875 6.125 C-44.18325997 5.13679858 -36.47595208 3.49198403 -28.8125 0.9375 C-20.33900487 -1.88699838 -7.82251646 -5.21501097 0 0 Z " fill="#4E5C75" transform="translate(139,7)"/>
<path d="M0 0 C0 0.66 0 1.32 0 2 C-1.32 2.33 -2.64 2.66 -4 3 C-2.87993057 3.00586624 -1.75986115 3.01173248 -0.60585022 3.01777649 C9.97239384 3.07509849 20.5504342 3.14790959 31.12847042 3.23571491 C36.56618187 3.28035864 42.00381944 3.31962804 47.44165039 3.34643555 C52.69376847 3.37252825 57.94560129 3.41297298 63.19754219 3.46318626 C65.19685875 3.47981464 67.1962246 3.49135392 69.19560051 3.49761391 C72.00562001 3.50729889 74.81491633 3.53541045 77.62475586 3.56762695 C78.85259544 3.56547432 78.85259544 3.56547432 80.10523987 3.5632782 C86.46369463 3.66574233 93.05455159 4.61326464 98.12109375 8.71875 C98.77271484 9.60046875 98.77271484 9.60046875 99.4375 10.5 C99.88996094 11.0878125 100.34242188 11.675625 100.80859375 12.28125 C103.36663927 15.97154517 104.25014338 17.77619101 104.23046875 22.25390625 C104.22853516 23.27291016 104.22660156 24.29191406 104.22460938 25.34179688 C104.21236328 26.40462891 104.20011719 27.46746094 104.1875 28.5625 C104.1865332 30.16254883 104.1865332 30.16254883 104.18554688 31.79492188 C104.14037976 39.71924047 104.14037976 39.71924047 103 42 C99.37 42 95.74 42 92 42 C92 41.34 92 40.68 92 40 C91.01 40 90.02 40 89 40 C88.94392578 38.21142578 88.94392578 38.21142578 88.88671875 36.38671875 C88.82105968 34.820281 88.75461232 33.25387616 88.6875 31.6875 C88.66494141 30.90181641 88.64238281 30.11613281 88.61914062 29.30664062 C88.58369141 28.54931641 88.54824219 27.79199219 88.51171875 27.01171875 C88.48553467 26.31522217 88.45935059 25.61872559 88.43237305 24.90112305 C87.87826595 22.46474136 86.92518466 21.55028182 85 20 C82.89667109 19.28552357 82.89667109 19.28552357 81 19 C81 18.01 81 17.02 81 16 C83.95140299 16.6324435 86.488616 17.29873987 89 19 C91.82980791 23.60874055 92.3393309 27.01030803 92.1875 32.375 C92.14689453 34.24285156 92.14689453 34.24285156 92.10546875 36.1484375 C92.07066406 37.08945313 92.03585938 38.03046875 92 39 C95.3 39 98.6 39 102 39 C101.85790331 36.3122562 101.7114277 33.62486698 101.5625 30.9375 C101.52318359 30.18533203 101.48386719 29.43316406 101.44335938 28.65820312 C101.31132039 19.92075975 101.31132039 19.92075975 97.875 12.25 C91.32570513 7.12446488 85.72496839 6.5554069 77.65844727 6.56762695 C76.64305374 6.5574353 75.62766022 6.54724365 74.58149719 6.53674316 C71.24307694 6.50667739 67.90494395 6.49735683 64.56640625 6.48828125 C62.24469555 6.47142985 59.92299394 6.45327899 57.6013031 6.43388367 C51.50386396 6.38642789 45.40646172 6.35658972 39.30889893 6.33044434 C33.08150955 6.30061666 26.85424723 6.25409385 20.62695312 6.20898438 C8.41803527 6.12300144 -3.79090877 6.05563371 -16 6 C-15.67 5.01 -15.34 4.02 -15 3 C-12.3828125 2.05078125 -12.3828125 2.05078125 -9.125 1.3125 C-8.05507813 1.06113281 -6.98515625 0.80976563 -5.8828125 0.55078125 C-3 0 -3 0 0 0 Z " fill="#556276" transform="translate(61,27)"/>
<path d="M0 0 C4.95 0 9.9 0 15 0 C15.13866235 3.98525877 15.25777158 7.96429113 15.32958984 11.95068359 C15.37419788 13.96380122 15.45048417 15.97613686 15.52734375 17.98828125 C15.6359209 25.1905653 15.50861172 30.05925277 10.54956055 35.53320312 C10.03820557 36.01724609 9.52685059 36.50128906 9 37 C8.154375 37.825 7.30875 38.65 6.4375 39.5 C3.68706517 41.19257528 2.17154332 41.36246209 -1 41 C-1 40.34 -1 39.68 -1 39 C0.0725 38.5875 1.145 38.175 2.25 37.75 C7.47703975 35.47370849 10.134553 32.53816497 12.34912109 27.22900391 C13.69327829 22.62579491 13.58400496 17.82622894 13.6875 13.0625 C13.72166016 11.99708984 13.75582031 10.93167969 13.79101562 9.83398438 C13.87297436 7.22301328 13.93817613 4.61152544 14 2 C10.04 2 6.08 2 2 2 C2.04640625 3.22976562 2.0928125 4.45953125 2.140625 5.7265625 C2.17816036 7.3593506 2.21455862 8.99216511 2.25 10.625 C2.28351563 11.43324219 2.31703125 12.24148437 2.3515625 13.07421875 C2.44266702 18.67714671 1.72642724 21.73531104 -2 26 C-2.66 26 -3.32 26 -4 26 C-4 26.66 -4 27.32 -4 28 C-44.92 28 -85.84 28 -128 28 C-128 27.34 -128 26.68 -128 26 C-127.36885631 25.99668985 -126.73771261 25.99337971 -126.08744335 25.98996925 C-110.73948213 25.9087946 -95.39163103 25.81672049 -80.04381084 25.71247292 C-72.62175755 25.66232345 -65.19971543 25.61588086 -57.77758789 25.578125 C-51.30943787 25.5452126 -44.84137399 25.50538565 -38.37331897 25.45720994 C-34.94764591 25.43193736 -31.52203004 25.41015841 -28.09628868 25.39665604 C-24.27461922 25.38146371 -20.45315946 25.35083596 -16.6315918 25.31884766 C-15.49223679 25.31668747 -14.35288177 25.31452728 -13.17900085 25.31230164 C-12.13993591 25.30113815 -11.10087097 25.28997467 -10.03031921 25.2784729 C-9.1260403 25.27294214 -8.22176138 25.26741138 -7.29008007 25.26171303 C-4.72260491 25.1448657 -4.72260491 25.1448657 -2 23 C-1.0699111 20.2097333 -0.81301231 18.23470458 -0.68359375 15.33203125 C-0.64169922 14.43935547 -0.59980469 13.54667969 -0.55664062 12.62695312 C-0.51732422 11.69818359 -0.47800781 10.76941406 -0.4375 9.8125 C-0.37272461 8.40194336 -0.37272461 8.40194336 -0.30664062 6.96289062 C-0.20061457 4.64209812 -0.09980806 2.32106823 0 0 Z " fill="#8990A2" transform="translate(150,127)"/>
<path d="M0 0 C0.99 0.66 1.98 1.32 3 2 C3.41151104 4.91878902 3.64954896 7.63267809 3.75 10.5625 C3.81380859 11.75262695 3.81380859 11.75262695 3.87890625 12.96679688 C3.9715657 14.97613429 3.9916102 16.98854475 4 19 C2.2917059 20.7082941 0.13995623 20.11971926 -2.13786316 20.12442017 C-2.87297623 20.12082489 -3.60808929 20.11722961 -4.36547852 20.11352539 C-5.13615662 20.11367142 -5.90683472 20.11381744 -6.7008667 20.1139679 C-9.26024139 20.1132686 -11.8195442 20.10547545 -14.37890625 20.09765625 C-16.14867615 20.09579213 -17.91844656 20.0943682 -19.68821716 20.09336853 C-24.35551366 20.08954288 -29.02277923 20.0797122 -33.69006348 20.06866455 C-38.44897035 20.05845144 -43.20788221 20.05387113 -47.96679688 20.04882812 C-57.31121153 20.03808997 -66.6556032 20.02101299 -76 20 C-76 19.01 -76 18.02 -76 17 C-50.26 17 -24.52 17 2 17 C1.01 8.585 1.01 8.585 0 0 Z " fill="#43BA83" transform="translate(139,9)"/>
<path d="M0 0 C0.721875 0.12375 1.44375 0.2475 2.1875 0.375 C2.1875 1.035 2.1875 1.695 2.1875 2.375 C-1.2775 3.86 -1.2775 3.86 -4.8125 5.375 C-4.8125 38.705 -4.8125 72.035 -4.8125 106.375 C-5.4725 106.375 -6.1325 106.375 -6.8125 106.375 C-7.70733419 103.69049744 -7.94462319 102.12634248 -7.96640015 99.37211609 C-7.97500061 98.56049011 -7.98360107 97.74886414 -7.99246216 96.91264343 C-7.99672211 96.02583389 -8.00098206 95.13902435 -8.00537109 94.2253418 C-8.01354858 93.28844513 -8.02172607 92.35154846 -8.03015137 91.38626099 C-8.05498736 88.28225341 -8.07151588 85.17829147 -8.0859375 82.07421875 C-8.09126118 81.01430033 -8.09658485 79.9543819 -8.10206985 78.86234474 C-8.12879226 73.25337065 -8.14817103 67.64441875 -8.16259766 62.03540039 C-8.17925306 56.24135277 -8.22404132 50.44787309 -8.2749691 44.65404034 C-8.30861522 40.19905439 -8.32017215 35.74420379 -8.32582474 31.28910255 C-8.33254328 29.15325385 -8.3477809 27.01741423 -8.37171555 24.88168907 C-8.40331588 21.89160115 -8.40341145 18.90305269 -8.39599609 15.9128418 C-8.41240143 15.03210495 -8.42880676 14.1513681 -8.44570923 13.24394226 C-8.40269166 9.00301444 -8.12144397 6.20048349 -5.45181274 2.80232239 C-2.8125 0.375 -2.8125 0.375 0 0 Z " fill="#838C9B" transform="translate(20.8125,43.625)"/>
<path d="M0 0 C0.97468735 -0.00287018 1.94937469 -0.00574036 2.95359802 -0.00869751 C5.00512272 -0.01073079 7.05666714 -0.00525269 9.1081543 0.00732422 C12.23986276 0.0234055 15.37028415 0.0074412 18.50195312 -0.01171875 C20.50130492 -0.00973653 22.50065591 -0.00589329 24.5 0 C25.89708946 -0.00910904 25.89708946 -0.00910904 27.32240295 -0.0184021 C33.5315072 0.04848156 38.10594333 0.82078708 42.68359375 5.3984375 C42.35359375 6.3884375 42.02359375 7.3784375 41.68359375 8.3984375 C41.0913501 7.74721924 40.49910645 7.09600098 39.88891602 6.42504883 C35.14957338 3.42853095 30.89408253 3.88148303 25.3984375 3.97265625 C24.30519669 3.97594437 23.21195587 3.97923248 22.08558655 3.98262024 C19.77826978 3.99302919 17.47097899 4.0129588 15.16381836 4.04174805 C11.63055038 4.08581954 8.09796198 4.10318637 4.56445312 4.11523438 C2.32160478 4.12865909 0.07876479 4.14358223 -2.1640625 4.16015625 C-3.75010033 4.17123665 -3.75010033 4.17123665 -5.36817932 4.18254089 C-6.84507484 4.20179375 -6.84507484 4.20179375 -8.35180664 4.22143555 C-9.2160878 4.23127975 -10.08036896 4.24112396 -10.97084045 4.25126648 C-13.21000499 4.39176142 -15.16618442 4.77624656 -17.31640625 5.3984375 C-17.31640625 4.7384375 -17.31640625 4.0784375 -17.31640625 3.3984375 C-11.4178003 0.35103458 -6.58169992 -0.04300623 0 0 Z " fill="#47BE8A" transform="translate(136.31640625,70.6015625)"/>
<path d="M0 0 C4.95 0 9.9 0 15 0 C15.13866235 3.98525877 15.25777158 7.96429113 15.32958984 11.95068359 C15.37419788 13.96380122 15.45048417 15.97613686 15.52734375 17.98828125 C15.6359209 25.1905653 15.50861172 30.05925277 10.54956055 35.53320312 C10.03820557 36.01724609 9.52685059 36.50128906 9 37 C8.154375 37.825 7.30875 38.65 6.4375 39.5 C3.68706517 41.19257528 2.17154332 41.36246209 -1 41 C-1 40.34 -1 39.68 -1 39 C0.0725 38.5875 1.145 38.175 2.25 37.75 C7.47703975 35.47370849 10.134553 32.53816497 12.34912109 27.22900391 C13.69327829 22.62579491 13.58400496 17.82622894 13.6875 13.0625 C13.72166016 11.99708984 13.75582031 10.93167969 13.79101562 9.83398438 C13.87297436 7.22301328 13.93817613 4.61152544 14 2 C10.04 2 6.08 2 2 2 C2.04640625 3.22976562 2.0928125 4.45953125 2.140625 5.7265625 C2.17816036 7.3593506 2.21455862 8.99216511 2.25 10.625 C2.30027344 11.83736328 2.30027344 11.83736328 2.3515625 13.07421875 C2.44266702 18.67714671 1.72642724 21.73531104 -2 26 C-2.66 26 -3.32 26 -4 26 C-4 26.66 -4 27.32 -4 28 C-5.32 28 -6.64 28 -8 28 C-8 27.34 -8 26.68 -8 26 C-7.030625 25.566875 -6.06125 25.13375 -5.0625 24.6875 C-1.72268235 23.2985139 -1.72268235 23.2985139 -1 20 C-0.8535286 18.44733347 -0.75305926 16.89004338 -0.68359375 15.33203125 C-0.64169922 14.43935547 -0.59980469 13.54667969 -0.55664062 12.62695312 C-0.51732422 11.69818359 -0.47800781 10.76941406 -0.4375 9.8125 C-0.39431641 8.87212891 -0.35113281 7.93175781 -0.30664062 6.96289062 C-0.20061457 4.64209812 -0.09980806 2.32106823 0 0 Z " fill="#5D697E" transform="translate(150,127)"/>
<path d="M0 0 C0.70189453 0.01353516 1.40378906 0.02707031 2.12695312 0.04101562 C3.85579829 0.07629818 5.58424765 0.13010417 7.3125 0.1875 C7.3125 0.8475 7.3125 1.5075 7.3125 2.1875 C7.9725 2.1875 8.6325 2.1875 9.3125 2.1875 C9.3125 10.4375 9.3125 18.6875 9.3125 27.1875 C7.0025 27.1875 4.6925 27.1875 2.3125 27.1875 C3.6325 26.5275 4.9525 25.8675 6.3125 25.1875 C6.3125 17.9275 6.3125 10.6675 6.3125 3.1875 C1.3625 2.8575 -3.5875 2.5275 -8.6875 2.1875 C-8.6875 10.4375 -8.6875 18.6875 -8.6875 27.1875 C-9.3475 26.8575 -10.0075 26.5275 -10.6875 26.1875 C-10.774485 22.41681168 -10.82788579 18.64638068 -10.875 14.875 C-10.90013672 13.80314453 -10.92527344 12.73128906 -10.95117188 11.62695312 C-10.96083984 10.59892578 -10.97050781 9.57089844 -10.98046875 8.51171875 C-10.9961792 7.56385498 -11.01188965 6.61599121 -11.02807617 5.6394043 C-10.6875 3.1875 -10.6875 3.1875 -9.39257812 1.37304688 C-6.54459615 -0.6071651 -3.33257353 -0.12135422 0 0 Z " fill="#5BC394" transform="translate(42.6875,116.8125)"/>
<path d="M0 0 C0.99 0 1.98 0 3 0 C3.33 0.66 3.66 1.32 4 2 C4.99 2.33 5.98 2.66 7 3 C7 3.66 7 4.32 7 5 C46.6 5 86.2 5 127 5 C127 5.33 127 5.66 127 6 C111.32722818 6.0934977 95.65453181 6.16400571 79.98155022 6.20724869 C72.70407658 6.22786208 65.42677637 6.25595901 58.14941406 6.30175781 C51.80544769 6.34166337 45.46160694 6.36744172 39.11751854 6.37635398 C35.75921648 6.38156254 32.40127375 6.39377825 29.04308701 6.42292023 C25.29136531 6.45192419 21.54038985 6.45595707 17.78857422 6.45410156 C16.67870651 6.46848267 15.56883881 6.48286377 14.42533875 6.49768066 C8.36879294 6.46523313 4.53768289 6.20366351 0 2 C0 1.34 0 0.68 0 0 Z " fill="#33425D" transform="translate(15,150)"/>
<path d="M0 0 C1.58206057 0.00667536 3.16410534 0.0186375 4.74609375 0.03515625 C5.55240234 0.03966797 6.35871094 0.04417969 7.18945312 0.04882812 C9.18753131 0.06065107 11.18557158 0.07858711 13.18359375 0.09765625 C12.85359375 1.08765625 12.52359375 2.07765625 12.18359375 3.09765625 C7.23359375 3.42765625 2.28359375 3.75765625 -2.81640625 4.09765625 C-2.81640625 17.29765625 -2.81640625 30.49765625 -2.81640625 44.09765625 C-3.47640625 44.09765625 -4.13640625 44.09765625 -4.81640625 44.09765625 C-4.84105138 37.99210915 -4.85923996 31.88659074 -4.87133789 25.78100586 C-4.87637913 23.70222469 -4.88321199 21.62344709 -4.8918457 19.54467773 C-4.90392047 16.56363039 -4.90963649 13.58262976 -4.9140625 10.6015625 C-4.92180443 9.19844566 -4.92180443 9.19844566 -4.92970276 7.76698303 C-4.92977829 6.90616623 -4.92985382 6.04534943 -4.92993164 5.15844727 C-4.93215225 4.3967775 -4.93437286 3.63510773 -4.93666077 2.85035706 C-4.70032787 -0.59417762 -3.57378835 0.09144801 0 0 Z " fill="#28B070" transform="translate(62.81640625,99.90234375)"/>
<path d="M0 0 C0 0.66 0 1.32 0 2 C-2.64 2.66 -5.28 3.32 -8 4 C22.36 4.33 52.72 4.66 84 5 C84 5.33 84 5.66 84 6 C51 6 18 6 -16 6 C-15.67 5.01 -15.34 4.02 -15 3 C-12.3828125 2.05078125 -12.3828125 2.05078125 -9.125 1.3125 C-8.05507813 1.06113281 -6.98515625 0.80976563 -5.8828125 0.55078125 C-3 0 -3 0 0 0 Z " fill="#5E6B7F" transform="translate(61,27)"/>
<path d="M0 0 C2.95140299 0.6324435 5.488616 1.29873987 8 3 C10.82980791 7.60874055 11.3393309 11.01030803 11.1875 16.375 C11.16042969 17.62023437 11.13335937 18.86546875 11.10546875 20.1484375 C11.07066406 21.08945313 11.03585938 22.03046875 11 23 C14.3 23 17.6 23 21 23 C20.67 16.07 20.34 9.14 20 2 C22.16926659 5.25389988 22.24080049 6.13395957 22.1953125 9.88671875 C22.18886719 10.82451172 22.18242187 11.76230469 22.17578125 12.72851562 C22.15902344 13.70498047 22.14226562 14.68144531 22.125 15.6875 C22.11597656 16.67556641 22.10695312 17.66363281 22.09765625 18.68164062 C22.07408566 21.12119706 22.03821469 23.56062901 22 26 C18.37 26 14.74 26 11 26 C11 25.34 11 24.68 11 24 C10.01 24 9.02 24 8 24 C7.96261719 22.80761719 7.92523438 21.61523438 7.88671875 20.38671875 C7.82105968 18.820281 7.75461232 17.25387616 7.6875 15.6875 C7.66494141 14.90181641 7.64238281 14.11613281 7.61914062 13.30664062 C7.58369141 12.54931641 7.54824219 11.79199219 7.51171875 11.01171875 C7.48553467 10.31522217 7.45935059 9.61872559 7.43237305 8.90112305 C6.87826595 6.46474136 5.92518466 5.55028182 4 4 C1.89667109 3.28552357 1.89667109 3.28552357 0 3 C0 2.01 0 1.02 0 0 Z " fill="#35425C" transform="translate(142,43)"/>
<path d="M0 0 C38.94 0 77.88 0 118 0 C118 0.33 118 0.66 118 1 C80.71 1 43.42 1 5 1 C5 1.66 5 2.32 5 3 C4.01 3 3.02 3 2 3 C2 2.34 2 1.68 2 1 C1.34 0.67 0.68 0.34 0 0 Z " fill="#0A2745" transform="translate(21,43)"/>
<path d="M0 0 C0.66 0 1.32 0 2 0 C2 0.66 2 1.32 2 2 C36.32 2 70.64 2 106 2 C106 2.33 106 2.66 106 3 C70.69 3 35.38 3 -1 3 C-0.67 2.01 -0.34 1.02 0 0 Z " fill="#34425A" transform="translate(43,31)"/>
<path d="M0 0 C-0.33 0.66 -0.66 1.32 -1 2 C-1.66 1.67 -2.32 1.34 -3 1 C-10.67863338 0.53212628 -18.36193975 1.25352291 -26 2 C-26 2.66 -26 3.32 -26 4 C-28.41474617 4.53160457 -30.83108107 5.05054766 -33.25 5.5625 C-33.93191406 5.71396484 -34.61382812 5.86542969 -35.31640625 6.02148438 C-38.81769038 6.75233495 -41.60298173 7.32203546 -45 6 C-41.14272073 4.32512874 -37.35648994 3.32476197 -33.25 2.4375 C-29.3095189 1.87283445 -29.3095189 1.87283445 -26 0 C-18.23370536 -2.23774591 -7.02672061 -4.68448041 0 0 Z " fill="#6ECDA2" transform="translate(139,7)"/>
<path d="M0 0 C3.38619412 1.25141957 4.86304165 2.04456247 6.875 5.0625 C7.49154918 7.86866309 7.52943062 10.26107771 6.875 13.0625 C4.152607 16.3623703 2.55304009 16.97923192 -1.6875 17.5 C-5.125 17.0625 -5.125 17.0625 -7.5625 16.125 C-9.76107988 13.22287456 -9.80454042 10.87959773 -9.640625 7.296875 C-9.05494466 4.75892687 -8.38809279 3.70634483 -6.5 1.9375 C-3.125 0.0625 -3.125 0.0625 0 0 Z M-6.5625 4.25 C-8.36321544 6.90975338 -8.36321544 6.90975338 -8 9.6875 C-7.15125324 12.27537957 -7.15125324 12.27537957 -5.125 15.0625 C-0.77913172 15.45757893 1.19503497 15.51581002 4.875 13.0625 C5.88432746 10.11215818 6.11908113 8.6645668 4.9375 5.75 C4.586875 5.193125 4.23625 4.63625 3.875 4.0625 C3.215 4.0625 2.555 4.0625 1.875 4.0625 C1.875 3.4025 1.875 2.7425 1.875 2.0625 C-2.06254122 1.61505213 -3.5463525 1.54320096 -6.5625 4.25 Z " fill="#62C69A" transform="translate(137.125,88.9375)"/>
<path d="M0 0 C0.33 0 0.66 0 1 0 C1.14960034 3.98320508 1.25778972 7.96529803 1.32958984 11.95068359 C1.37419788 13.96380122 1.45048417 15.97613686 1.52734375 17.98828125 C1.6359209 25.1905653 1.50861172 30.05925277 -3.45043945 35.53320312 C-3.96179443 36.01724609 -4.47314941 36.50128906 -5 37 C-5.845625 37.825 -6.69125 38.65 -7.5625 39.5 C-10.31293483 41.19257528 -11.82845668 41.36246209 -15 41 C-15 40.34 -15 39.68 -15 39 C-13.9275 38.5875 -12.855 38.175 -11.75 37.75 C-6.56594472 35.49242754 -3.84985553 32.56328629 -1.65087891 27.29150391 C-0.24819604 22.35317632 -0.41397916 17.16255282 -0.3125 12.0625 C-0.27833984 10.90169922 -0.24417969 9.74089844 -0.20898438 8.54492188 C-0.12693715 5.69671118 -0.05764464 2.84879161 0 0 Z " fill="#848FA1" transform="translate(164,127)"/>
<path d="M0 0 C3.96 0 7.92 0 12 0 C12.0539165 3.7501919 12.09363473 7.49960961 12.125 11.25 C12.14175781 12.31347656 12.15851563 13.37695312 12.17578125 14.47265625 C12.18222656 15.49746094 12.18867188 16.52226562 12.1953125 17.578125 C12.20578613 18.52075195 12.21625977 19.46337891 12.22705078 20.43457031 C11.99119213 23.09951941 11.35661659 24.71863092 10 27 C9.67 24.69 9.34 22.38 9 20 C9.33 20 9.66 20 10 20 C10.33 13.73 10.66 7.46 11 1 C7.7 1 4.4 1 1 1 C1 6.28 1 11.56 1 17 C0.67 17 0.34 17 0 17 C0 11.39 0 5.78 0 0 Z " fill="#1F2F4B" transform="translate(152,129)"/>
<path d="M0 0 C4.64449799 0.99524957 7.30716259 1.96074389 10 6 C10.22705078 7.99291992 10.22705078 7.99291992 10.1953125 10.23046875 C10.18564453 11.43413086 10.18564453 11.43413086 10.17578125 12.66210938 C10.15902344 13.49548828 10.14226562 14.32886719 10.125 15.1875 C10.11597656 16.03248047 10.10695312 16.87746094 10.09765625 17.74804688 C10.07410703 19.83215243 10.03823647 21.91611217 10 24 C9.34 24 8.68 24 8 24 C7.96261719 22.80761719 7.92523438 21.61523438 7.88671875 20.38671875 C7.82105968 18.820281 7.75461232 17.25387616 7.6875 15.6875 C7.66494141 14.90181641 7.64238281 14.11613281 7.61914062 13.30664062 C7.58369141 12.54931641 7.54824219 11.79199219 7.51171875 11.01171875 C7.48553467 10.31522217 7.45935059 9.61872559 7.43237305 8.90112305 C6.87826595 6.46474136 5.92518466 5.55028182 4 4 C1.89667109 3.28552357 1.89667109 3.28552357 0 3 C0 2.01 0 1.02 0 0 Z " fill="#596478" transform="translate(142,43)"/>
<path d="M0 0 C0 0.66 0 1.32 0 2 C-0.80824219 2.23074219 -1.61648437 2.46148438 -2.44921875 2.69921875 C-10.87877091 5.08988529 -10.87877091 5.08988529 -17 11 C-18.23155166 14.2858202 -19.18521133 17.58848647 -20 21 C-20.33 21 -20.66 21 -21 21 C-21.37355373 15.8947657 -20.45124137 12.49394252 -18 8 C-12.91407784 2.79580058 -7.33602194 0 0 0 Z " fill="#697589" transform="translate(21,27)"/>
<path d="M0 0 C5.61 0 11.22 0 17 0 C16.67 0.99 16.34 1.98 16 3 C10.39 3 4.78 3 -1 3 C-0.67 2.01 -0.34 1.02 0 0 Z " fill="#47BC84" transform="translate(59,100)"/>
<path d="M0 0 C8.57675971 6.67081311 8.57675971 6.67081311 9.34057617 12.67895508 C9.32486572 13.61634521 9.30915527 14.55373535 9.29296875 15.51953125 C9.28330078 16.54111328 9.27363281 17.56269531 9.26367188 18.61523438 C9.23853516 19.67033203 9.21339844 20.72542969 9.1875 21.8125 C9.17396484 22.88693359 9.16042969 23.96136719 9.14648438 25.06835938 C9.11122577 27.71275455 9.06194366 30.35611748 9 33 C8.67 33 8.34 33 8 33 C7.96132812 31.09927734 7.96132812 31.09927734 7.921875 29.16015625 C7.94809475 16.41349789 7.94809475 16.41349789 3 5 C2.01 4.34 1.02 3.68 0 3 C0 2.01 0 1.02 0 0 Z " fill="#7E889B" transform="translate(156,34)"/>
<path d="M0 0 C0.721875 0.12375 1.44375 0.2475 2.1875 0.375 C2.1875 1.035 2.1875 1.695 2.1875 2.375 C-1.2775 3.86 -1.2775 3.86 -4.8125 5.375 C-4.86148437 6.37402344 -4.91046875 7.37304688 -4.9609375 8.40234375 C-5.03570312 9.69269531 -5.11046875 10.98304687 -5.1875 12.3125 C-5.29191406 14.24416016 -5.29191406 14.24416016 -5.3984375 16.21484375 C-5.53507813 17.25769531 -5.67171875 18.30054688 -5.8125 19.375 C-6.4725 19.705 -7.1325 20.035 -7.8125 20.375 C-8.67251329 6.42367336 -8.67251329 6.42367336 -5.625 2.5 C-2.8125 0.375 -2.8125 0.375 0 0 Z " fill="#838D9C" transform="translate(20.8125,43.625)"/>
<path d="M0 0 C-3.65728405 2.43818936 -6.93287895 2.6716692 -11.1875 3.125 C-12.31188477 3.25455078 -12.31188477 3.25455078 -13.45898438 3.38671875 C-15.30517412 3.59838382 -17.15249344 3.80015464 -19 4 C-14.48966992 -1.34775293 -6.41555603 -1.68830422 0 0 Z " fill="#57BA91" transform="translate(113,10)"/>
<path d="M0 0 C-0.33 0.66 -0.66 1.32 -1 2 C-3.8359375 2.921875 -3.8359375 2.921875 -7.375 3.75 C-9.11910156 4.17539062 -9.11910156 4.17539062 -10.8984375 4.609375 C-14 5 -14 5 -17 3 C-11.34507634 0.50518074 -6.15261013 -0.14649072 0 0 Z " fill="#13354A" transform="translate(92,15)"/>
<path d="M0 0 C-0.639375 0.268125 -1.27875 0.53625 -1.9375 0.8125 C-4.33131686 1.88667752 -4.33131686 1.88667752 -5 5 C-8.3 5 -11.6 5 -15 5 C-5.25210084 -2.31092437 -5.25210084 -2.31092437 0 0 Z " fill="#028A56" transform="translate(83,20)"/>
<path d="M0 0 C0.99 0 1.98 0 3 0 C2.67 0.99 2.34 1.98 2 3 C-3.76081841 4.2982126 -9.08739655 5.25706972 -15 5 C-14.67 4.34 -14.34 3.68 -14 3 C-11.09375 2.40234375 -11.09375 2.40234375 -7.5 1.9375 C-3.42628676 1.73570599 -3.42628676 1.73570599 0 0 Z " fill="#667287" transform="translate(66,17)"/>
<path d="M0 0 C1.32 0 2.64 0 4 0 C4.33 0.99 4.66 1.98 5 3 C0.05 3.66 -4.9 4.32 -10 5 C-10 4.34 -10 3.68 -10 3 C-6.7 2.67 -3.4 2.34 0 2 C0 1.34 0 0.68 0 0 Z " fill="#44536B" transform="translate(31,24)"/>
<path d="M0 0 C3.375 1.75 3.375 1.75 5.375 3.75 C5.045 4.74 4.715 5.73 4.375 6.75 C3.694375 6.13125 3.01375 5.5125 2.3125 4.875 C-1.08381234 2.4180932 -3.58518821 1.70054395 -7.625 0.75 C-4.57097184 -1.5710614 -3.73784673 -1.28891267 0 0 Z " fill="#60CA9C" transform="translate(173.625,72.25)"/>
<path d="M0 0 C0.99 0.33 1.98 0.66 3 1 C3 2.98 3 4.96 3 7 C0.69 7 -1.62 7 -4 7 C-2.68 6.34 -1.36 5.68 0 5 C0 3.35 0 1.7 0 0 Z " fill="#38B680" transform="translate(49,137)"/>
<path d="M0 0 C2.93783498 0.62953607 5.55005903 1.22590481 8 3 C8.75 6.125 8.75 6.125 9 9 C7.88625 7.7934375 7.88625 7.7934375 6.75 6.5625 C4.24695171 4.23011409 3.2819045 3.36465606 0 3 C0 2.01 0 1.02 0 0 Z " fill="#647187" transform="translate(142,43)"/>
<path d="M0 0 C0.33 0.99 0.66 1.98 1 3 C-1.35968744 5.09749995 -2.54616994 5.96905704 -5.75 6.1875 C-6.86375 6.0946875 -6.86375 6.0946875 -8 6 C-8 5.34 -8 4.68 -8 4 C-6.865625 3.525625 -5.73125 3.05125 -4.5625 2.5625 C-1.24259834 1.36377917 -1.24259834 1.36377917 0 0 Z " fill="#5A677D" transform="translate(157,162)"/>
<path d="M0 0 C0.66 0.33 1.32 0.66 2 1 C1.484375 1.515625 0.96875 2.03125 0.4375 2.5625 C-1.57265701 5.9710271 -0.79727396 8.23106857 0 12 C-0.99 11.34 -1.98 10.68 -3 10 C-3.66932271 3.86454183 -3.66932271 3.86454183 -1.5 1.0625 C-1.005 0.711875 -0.51 0.36125 0 0 Z " fill="#76D0A9" transform="translate(131,91)"/>
<path d="M0 0 C1.48206495 0.254496 2.96068615 0.52911762 4.4375 0.8125 C5.67306641 1.03873047 5.67306641 1.03873047 6.93359375 1.26953125 C7.95646484 1.63111328 7.95646484 1.63111328 9 2 C9.33 2.99 9.66 3.98 10 5 C6.58978257 4.21302675 3.31114834 3.12880057 0 2 C0 1.34 0 0.68 0 0 Z " fill="#49566F" transform="translate(146,31)"/>
<path d="M0 0 C1.11375 0.1546875 1.11375 0.1546875 2.25 0.3125 C2.25 0.9725 2.25 1.6325 2.25 2.3125 C-2.205 3.7975 -2.205 3.7975 -6.75 5.3125 C-3.42692308 0.38942308 -3.42692308 0.38942308 0 0 Z " fill="#5D6A82" transform="translate(20.75,43.6875)"/>
<path d="M0 0 C0.99 0 1.98 0 3 0 C3.33 0.66 3.66 1.32 4 2 C4.99 2.33 5.98 2.66 7 3 C7 3.66 7 4.32 7 5 C4.625 4.75 4.625 4.75 2 4 C0.6875 1.9375 0.6875 1.9375 0 0 Z " fill="#3F4E69" transform="translate(15,150)"/>
<path d="M0 0 C3.96 0.33 7.92 0.66 12 1 C12 1.33 12 1.66 12 2 C6.06 2.495 6.06 2.495 0 3 C0 2.01 0 1.02 0 0 Z " fill="#42BA84" transform="translate(122,5)"/>
</svg>
